<svg xmlns="http://www.w3.org/2000/svg" viewBox="0 0 221.44 45.91"><defs><style>.cls-1{font-size:18px;font-family:Futura-Medium, Futura;font-weight:500;}.cls-1,.cls-2,.cls-3,.cls-6{fill:#fff;}.cls-2{opacity:0.5;font-size:36px;font-family:ToppanBunkyuMidashiGothicStdN-ExtraBold-83pv-RKSJ-H, Toppan Bunkyu Midashi Gothic;}.cls-2,.cls-3{letter-spacing:-0.05em;}.cls-3{font-size:24px;font-family:Futura-Bold, Futura;font-weight:700;}.cls-4{letter-spacing:-0.04em;}.cls-5{letter-spacing:-0.05em;}</style></defs><g id="Layer_2" data-name="Layer 2"><g id="Layer_1-2" data-name="Layer 1"><text class="cls-1" transform="translate(128.65 30.72)">2020-2023</text><text class="cls-2" transform="translate(108.48 35.47)">©</text><text class="cls-3" transform="translate(0 31.79)">Ju<tspan class="cls-4" x="26.38" y="0">s</tspan><tspan class="cls-5" x="37.73" y="0">tus Ip</tspan></text><path class="cls-6" d="M114.92,24.81a4.46,4.46,0,0,0-.59-.85c-.26-.34-.53-.69-.81-1-.58-.73-1.18-1.46-1.79-2.17s-1.23-1.45-1.84-2.17a1,1,0,0,0,.39-.39s0,0,0-.05a.5.5,0,0,0,.37-.29.59.59,0,0,0-.26-.68l0-.09a.54.54,0,0,0-.16-.56l-.18-.19a.09.09,0,0,0,0-.09c-.07-.08-.15-.15-.22-.22a.69.69,0,0,0,.33-.21.08.08,0,0,0,0-.11,7.77,7.77,0,0,1-2.09-2.79A18.82,18.82,0,0,0,106.77,10a11.9,11.9,0,0,0-2.06-2.25,8,8,0,0,0-3.39-2,3.61,3.61,0,0,1-.35-.33,1.79,1.79,0,0,1-.34-.56,11,11,0,0,0-1.44-2.37A7.3,7.3,0,0,0,97,.72a5.4,5.4,0,0,0-5.39,0A2.83,2.83,0,0,0,90.6,2a5.5,5.5,0,0,0-2.66,1.61s0,.12,0,.13l1.88.43c.2,0,.4.08.6.1A7.42,7.42,0,0,0,91.7,6.7a0,0,0,0,0,0,0l.14.23a3.14,3.14,0,0,1,.21.49,5.7,5.7,0,0,1,.23.86c.07.54.13,1.14.18,1.7a1.78,1.78,0,0,0,0,.46.22.22,0,0,0,.09.19,16.46,16.46,0,0,0,.31,2.09c.48,2.1,2.15,3.46,4,4.47a5.41,5.41,0,0,0,.16.91.49.49,0,0,0,.2.29v.09s0,.08,0,.1-.06.06-.1.09c-.24.18-1.74.88-1.88,1a6,6,0,0,0-2.15.12.08.08,0,0,0,0,.16l.48,0a6.05,6.05,0,0,0-.73.2c-.18.05-.16.35,0,.33s.66,0,1-.08.54,0,.8,0c0,0,.65.07,1,.12s.56.18.85.24a.15.15,0,0,0,.15-.25,1.69,1.69,0,0,0-.82-.5,8.29,8.29,0,0,0,2.06-1.07c0-.1,0-.23.07-.37a.79.79,0,0,0,.43-.56l.28.13.82.35a10.83,10.83,0,0,0,.12,1.13.53.53,0,0,0,.24.37.3.3,0,0,1-.08.17.83.83,0,0,1-.34.2c-.17.08-1.74.66-2.42.83a7.31,7.31,0,0,0-2.21.12.08.08,0,0,0,0,.16h.48l-.73.21c-.17.05-.15.34,0,.33l1-.08.84,0c.3,0,.61.06.91.11s.56.18.85.24a.15.15,0,0,0,.14-.26,1.54,1.54,0,0,0-.68-.45h0a10.79,10.79,0,0,0,2.74-1,.7.7,0,0,0,.12-.34.45.45,0,0,0,.29-.21A2.62,2.62,0,0,0,101,19a28.5,28.5,0,0,0,6.58,1.41.08.08,0,0,0,.07-.05h0l.3.36c1.13,1.39,2.22,2.81,3.24,4.28a7.64,7.64,0,0,0,.54.73,1.44,1.44,0,0,0,.68.52c.46.08.47-.38.36-.74.32.3.63.74,1.12.55s.27-.56.13-.9a.74.74,0,0,0,.63.19A.42.42,0,0,0,114.92,24.81Z"/></g></g></svg>