<svg xmlns="http://www.w3.org/2000/svg" viewBox="0 0 801.05 335.81"><defs><style>.cls-1{isolation:isolate;}.cls-2{mix-blend-mode:multiply;}.cls-3{fill:#211a31;}</style></defs><g class="cls-1"><g id="Layer_2" data-name="Layer 2"><g id="Layer_4" data-name="Layer 4"><g id="brush_big" class="cls-2"><path class="cls-3" d="M50.78,84.79h.3A1.72,1.72,0,0,0,51,85Z"/><path class="cls-3" d="M31.58,129c-.08.06-.09,0,0,0Z"/><path class="cls-3" d="M16.26,293.66c4.12.32,5.62-1.77,6.82-4.6a20.89,20.89,0,0,1,2.58-4.6c1.09-1.41-.44-1.75-1-2.44-1.37-1.67-3.55-1.29-5.49-1.58-.55-.08-1-.72-1.48-1.11a4,4,0,0,1,.91-.69c2.16-.81,4.38-1.49,6.5-2.37,3.59-1.51,4-5.1,6.17-7.6.91-1.06-.43-2.59-1.48-3.73-.82-.9-.79-2.33.29-2.71,2.41-.86,3.33-2.48,4.57-4.31A15.22,15.22,0,0,1,44,251.74c7.55-1.74,14.48-5.45,22.63-5.36,1.46,0,2.91-.94,4.41-1.32,3.76-.95,7.55-2.59,11.31-2.55,4.23.05,7.5-2.59,11.51-2.26,4.2.35,7.19-3,11.36-2.59.77.08,1.55-2,1.18-2.63-.51-.91-1.1-1-1.87-.32-1.56,1.42-3-.51-3.9-.31-1.81.4-3.29,1.65-5.49,1.59-5.64-.16-11.29-.05-16.94-.11a6.63,6.63,0,0,1-2.21-.54c-.31-.11-.69-.49-.69-.75,0-.67,0-1.74.37-1.94,2.41-1.14,4.86-2.7,7.44-2.93,3-.28,5-2.11,7.73-2.78,1.72-.42,1.41-2.28,1.12-3.69a2.39,2.39,0,0,0-2.34-2c-3.61-.12-7.25-.21-10.86,0-3.91.23-7.28,2.51-11.49,2.32-1.52-.07-3.16,1.95-4.76,3a2.62,2.62,0,0,1-1,.3A4.63,4.63,0,0,1,60.7,225c-.08-1.78-.09-3.73,2.75-3.82,3.64-.11,6.34-2.86,10.28-2.44,3.55.38,6.44-2.43,10.32-2.1,2.66.23,3.75-1.43,2.57-3.34a19.06,19.06,0,0,1-2-4.87c-.87-3.08-3.47-4.48-7.06-4.45,0,0,0,.1.07.14h-.17a6.35,6.35,0,0,1-.08,1.95,7.4,7.4,0,0,1-1.09,1.74,7.88,7.88,0,0,1-1-1.76,6.69,6.69,0,0,1-.05-1.9H75a1.6,1.6,0,0,0,0-.21c-1.94-.05-3.92-.06-5.15,1.58-.85,1.13-1.42,2.42-2.22,3.58a2.78,2.78,0,0,1-4,.56,29.38,29.38,0,0,1-2.91-3.22c-2-2.54-3.63-3.18-7.81-2.32-2.41.49-2.08,2.37-2.18,4a5.5,5.5,0,0,1-4.68-3.93,5.15,5.15,0,0,1,1.35-4.94c1.19-1.38,2-3,3.13-4.4.38-.47,1.62-1,1.8-.89,3,2.36,5.42-.31,7.31-1.23,3.07-1.49,5.55-3.7,9.36-4.18,1.75-.22,1-2.33,1.33-3.64,3.35-1.51,5.69-4.33,9.43-5.43,1.17-.34,2.68-1.41,2.5-3.06l-4.7-1.94c-.06.3-.1.62-.28.7C73.21,177,68.47,177.58,64.6,180c-.72.44-1.81-.88-1.51-2,1.07-4.07,2.35-7.76,7.15-10.15,9.06-4.5,19-6.32,28.91-8.33,3.8-.77,7.67-.29,11.61-1.86,3.37-1.35,7.91-.43,11.93-.56a4.3,4.3,0,0,0,2.25-.44c2.71-2.18,6.39-.71,9.11-1.87s5.23-2.3,7.92-1.63c3.21.81,5.5-2.13,8.82-1,1.29.45,3.49-.77,5.12-1.51s1.27-2.4,1.43-3.73c.21-1.72,1.38-2.4,3.19-2.42,5.63-.08,11.27-.1,16.9-.23,2,0,4.28.17,5.82-.63,2.69-1.4,5.42-1.1,8.16-1.15,7.65-.13,15.34-.63,22.93-.09,8.11.57,15.57-2.77,23.59-2.2.39,0,.87-.78,1.31-1.2-.32-.21-.63-.58-1-.6-2-.12-4-.2-6-.2-16.1,0-32.19-.13-48.29,0-5.48.06-11.13-1-16.48,1.57-1.17.57-3.59-1.26-5.45-1.3-2.29,0-4.1,1.71-6.72,1.66-9.25-.17-18.51,0-27.77.06-2.32,0-3.18-1-4.31-2.72-1-1.53-3.75-2.19-5.72-3.24-2.48,2.78-5.12-1.47-7.3,0-3.61,2.45-7.69,1.49-11.59,1.76-3.53.24-7.14-.56-10.44,1.58-1,.64-3.17.38-4.58-.05-2.22-.68-4.71-1.45-6.25-2.88-3-2.74-5.53-3.55-9.24-1.09-.87.57-3.3.07-4.46-.64a10.27,10.27,0,0,0-5.46-1.34,2.1,2.1,0,0,0-2-1.92c-6.6.3-13.38-1.15-19.76,1.71-1.6.72-2.82-.93-3.81-2-.5-.53-.88-.47-1-.4a2.09,2.09,0,0,0,.39-.37,27,27,0,0,1,5.75-5.08c1.35-.86,2.81.59,4.24,1a19.48,19.48,0,0,0,10.36.13c.45-.11.7-.89,1-1.46l3.48-.12c3.06-.12,3.6-.6,3.82-2.85s-.31-3.06-3-3.51c-.78-.14-1.64,0-2.39-.13-1.13-.29-2.15-.76-1.78-2.14a2.36,2.36,0,0,1,2.41-1.85c2.76-.21,5.94.29,8.21-.75a20.29,20.29,0,0,1,10.42-1.49c4.12.31,7.19-2.71,11.44-2.16,3.51.45,7.54.77,10.69-.31a63.45,63.45,0,0,1,11.3-2.36c.37-.06.59-.9.85-1.48-7.54,0-15.08-.1-22.61-.12a22,22,0,0,0-6.86,1.18,29.76,29.76,0,0,1-15.2.41c-1.77-.39-3.28-1.71-5.45-1.57-6.66.45-13.54-1.09-19.94,1.95-1.26.6-3.17.27-4.76.16a5.92,5.92,0,0,1-2-.94A9.32,9.32,0,0,1,33.69,104c5.75-2.31,12-3.19,18.08-4.17,2.73-.44,5.62-.06,8.41-.27a8,8,0,0,0,3.16-1.22,3.26,3.26,0,0,0,1.36-1.66c.07-.23-.93-1-1.5-1-2-.22-4-.21-6-.37-.33,0-.67-.38-.9-.66-.06-.07.24-.48.47-.61,2-1.15,4.55-.5,6.7-1.85a20.25,20.25,0,0,1,13.47-3c7.34,1,13.91-2.25,21-2.53.32,0,.62-.42.93-.64-.23-.23-.41-.57-.7-.66A6.06,6.06,0,0,0,96,84.9c-8.64.57-17.58-1.71-25.9,2l-11.91,0a2.67,2.67,0,0,0-2.92-2.11c-1.4,0-2.79,0-4.19,0a1.92,1.92,0,0,1,1.8-1.8c2.56-.21,5.14-.2,7.72-.28.73-1.17,2.19-2.86,1.83-3.24-1.71-1.82-1.49-3.91-2-5.91-.16-.57-2.26-1.34-2.9-1-2.17,1-4.24,1.93-6.77,1.69-6.51-.62-12.28,2.35-18.53,3-1,.09-1.75,1.62-2.9.11-.53-.69.63-2.27,2.23-3.06a17.54,17.54,0,0,1,9.06-2.16,50.41,50.41,0,0,0,9.5-.55,3.72,3.72,0,0,0,2.48-2.1c.21-.63-.69-1.84-1.46-2.38-1.48-1-3.28-1.66-4.79-2.66-.3-.2-.07-1.72.29-1.85,2.14-.79,4.63-1,6.54-2A28.78,28.78,0,0,1,69,57.26c1.6.09,3.22-.19,4.82-.1,4.68.26,8.87-1.15,11.74-4.1,3.38-3.46,8.09-4.19,12.33-5.87,2.67-1,6.23-.4,7.24-4,.26-.94,2.63,2.31,3.56.2,3.3-7.51,11.28-9.13,18.53-11.37,2.52-.78,5.18-1.22,7.78-2.07,2.84-.93,6.35-.27,9.57-.32,2.4,0,4.59-2.63,7.16-.43l4.54-3.47c1.75,1.59,3.28,1.07,5-.14,1.2-.83,3.42-2,4.16-1.61,2.91,1.59,5-.74,7.55-.61,7,.37,13-2.43,19.22-4.46,1-.34,1.22-.94.67-1.39-.28-.24-.62-.61-.93-.61-4.83,0-9.86-.69-14.42.29-4.15.89-8.41,1.59-12.51,2.73-5.59,1.55-11.69,1.84-16.52,5.32-.76.55-2.36.34-3.53.22-.6-.07-1.11-.74-1.66-1.14,3.16-3.08,5.81-6.47,11-7.61,4.22-.92,8.55-1.42,12.62-2.41a55.2,55.2,0,0,1,12.81-1.75c2,0,4.28.15,5.83-.66,2.67-1.39,5.37-1.16,8.13-1.25,5.9-.2,11.9.63,17.5-2,1.26-.59,3.18-.24,4.77-.13.52,0,1,.73,1.46,1.12-.32.22-.68.67-.94.63-3.45-.52-5.86,1.77-8.82,2.53-.44.12-.67.82-1,1.26a10.35,10.35,0,0,0,2.13.68c1.19.1,2.65.4,3.57-.06,5.18-2.52,10.8-2,16.33-2.11,2.31,0,3.77-.5,3.94-2.83.06-.93,1-1.14,1.64-.57,1.54,1.35,3.39,1.5,5.37,1.29.06-1-.15-2.19.39-2.93s1.93-1,3-1.16a22.68,22.68,0,0,1,3.6-.08c9.64-.07,19.29-.37,28.91-.09,2.79.08,5.41-2.49,7.65-.87,2.86,2.06,5-1.67,7.52,0s5.42.78,8.16.87c5.22.18,10.44.13,15.66.26,1.54,0,3.42,0,4.53.68,1.72,1.1,2.59.29,4-.21,1.11-.4,2.39,1.78,4,.35s3.18,1.68,5.15,0,4.59-.66,6.94-.82c2-.13,4-.11,6-.13,5.22,0,10.44,0,15.65-.11,2,0,4.49.49,5.87-.36,4.11-2.5,8.52-1.46,12.8-1.52,4.78-.06,9.56.31,14.34.48C395.74,7.11,399.17,3,401,6c2.79.12,5.64.58,8.37.25,3.11-.36,5.08,1.82,7.88,2,4.29.25,8.51-.41,12.8,1.69,3.58,1.74,8.77-.45,12.41,2.53,4.78-.11,9.56-.18,14.32-.4.35,0,.65-.86,1-1.46l2.37-.16a2.42,2.42,0,0,1,3.37-1.79c1.82.77,2.89,1.2,5.1.32,1.76-.69,3.55-2.85,6.09-1.6s4.1-1.07,6.31-1.37c4.94-.67,9.59-3.36,14.67,0,1.06.7,3.12.23,4.73.26,3.62.08,7.24.07,10.86.24a2.23,2.23,0,0,1,2.22,1.84c1.14,0,2.29.12,3.43,0,4-.31,7.58,1.08,11.34,1.92a19.2,19.2,0,0,1,7.08,3.35,6.48,6.48,0,0,0,7.63-.06c2.61-1.64,4.6-.38,4.3,2.3a18.46,18.46,0,0,0,.09,3.15,2.13,2.13,0,0,0,2.23,2c2,.16,4,.09,6,.11,4.39,0,8.92-.48,13.12.32s8,2.79,11.73,4.55a37.89,37.89,0,0,0,5.51,1.67,95.72,95.72,0,0,1,14,5c2.65,1.24,5.25,1.11,7.9,1.42a2.41,2.41,0,0,0,2.1,1.9c1.17.21,2.39.15,3.57.3.34,0,.62.43.92.66-.42.41-.77,1-1.29,1.18a20.35,20.35,0,0,1-2.38.17,15.53,15.53,0,0,0-2.16.7c.31.44.5,1.1.94,1.27,3.59,1.38,7.17,2.82,11.27,2.44.29,0,.63.41,1,.62-.41.41-.75,1.08-1.25,1.19-3.76.83-9.05-2.24-11,3.42-.13.39-1.34.62-2.07.69a21.75,21.75,0,0,1-3.61,0c-6.28-.38-12.74,1.35-18.86-1.33-.47-.2-1.81,1.06-2.7,1.69s-.9,1.35,0,1.48c3.5.47,7.44.08,10.41,1.4,3.57,1.6,7.07.7,10.5,1.37,1.15.22,1.95.77,2,1.85-9.8-.32-19.65,1.25-29.42-1.67-5.76-1.72-11.65.91-17.38,2-2,.39-.45,1.54.11,2.2.72.84,1.84,1.45,2.4,2.35,1.06,1.68-.67,1.42-1.67,1.55a20.75,20.75,0,0,1-2.09.12c.3.58.55,1.41.93,1.46,2.76.34,5.66,1,8.32.54,2.87-.46,4.82,2.51,7.58,1.06,1.53-.8,2.13-.18,2.1,1a2,2,0,0,1-1,1.65c-1.48.42-3.08.49-4.61.77a1.62,1.62,0,0,0-.87.7c-.07.1.3.6.52.63,1.94.27,3.9.43,5.83.73a5.56,5.56,0,0,1,2,.72c-.28,1.13-1.36,1.2-2.49,1.21-4.82,0-9.65.11-14.48.21-.32,0-.63.41-.94.64.41.4.83,1.15,1.24,1.15,4.79,0,8.78,2.73,13.89,2.35,8-.59,16.1-.09,24.16.05,1.09,0,3.11.61,3.11.93,0,3.57,3.82,3.16,5.86,4.47,2.41,1.56,5.44.67,8.2.87,2,.14,4,0,6,.06,1.61,0,3.24,0,4.83.13.56,0,1.05.66,1.58,1l-1.5,1.65C626,87.25,623.92,87,621.93,87c-19.34,0-38.68.14-58,0-7.34-.07-13.77,2.28-20.28,4.67-.33.12-.55.47-.82.72a6.83,6.83,0,0,0,.92.68,3,3,0,0,0,1.07.33c1.17.13,2.35.18,3.52.35.34.05.62.43.93.65-.23.23-.44.63-.7.66a46,46,0,0,1-5.86.5c-3,0-2.16,2.6-3.57,3.57-.28.2-1.26-.39-1.92-.62s-1.74-.87-2.09-.65c-3.89,2.39-8.32,1.93-12.65,2.11-.4,0-.76.76-1.14,1.17.32.21.63.59,1,.61,2.81.13,6.16-.63,8.32.45,3.8,1.91,7.66,2.08,11.57,1.81,5.75-.39,10.9,1.5,16.2,2.75a46.11,46.11,0,0,1,5.55,1.68c6.1,2.26,12,3.27,18.27.48a9.19,9.19,0,0,1,3.47-.5,103.62,103.62,0,0,1,12.08,0c4.21.41,7.59-2,11.52-2,5.63-.11,11.28,0,16.91.06a9.67,9.67,0,0,1,2.82,1,7.75,7.75,0,0,1-2.14.73c-4.83.14-9.67.14-14.5.3-.6,0-1.18.68-1.77,1,.3.24.55.62.9.7,3.39.78,6.29,2.82,10.17,2.47,3.13-.29,6.15.69,9.25,1.41,4.13.95,8.36,2.55,12.59,2.5,7.66-.09,14.68,3.47,22.38,2.57,3.52,2,7.56,2,11.53,2,1.81,0,2.92,1,4.17,1.84s2.39,1.54,3.6,2.3c.36,2.66,3.8,2,5.23,3.61,1,1.22,1.49,1.81.52,3.39-1.37,2.22-.49,3.43,1.86,3.66,2,.2,4,.24,5.9.58.39.07.62.87.9,1.45-4.32,0-8.92.69-12.8-.47a102.6,102.6,0,0,1-13-4.34c-3.41-1.54-7.31-3.2-11-3.17-5.73.05-10.67-2.35-16.25-2.76a54.4,54.4,0,0,1-16.94-3.91c-4.09.71-8-2.54-12.27-.38-1.2.61-3.22.31-4.74,0-2.11-.45-4.06-1.92-6.3-.35-2.65-2.3-5-1-7.49.32a3,3,0,0,1-2.23-.32c-4.47-2.45-9.32-1-14-1.09-1.22,0-1.25.61-.4,1.43s1.5,1.77-.27,2.19c-2,.49-4.88-.6-5.62,2.22a6.7,6.7,0,0,1-5.41-1.29c-.66-.56-1.42-.36-1.65.59a2.15,2.15,0,0,0,.4,1.94c.87.63,2.26.71,3.1,1.35,5.09,3.9,5.06,4,7.06,3.94q7.86-.09,15.72-.22c2.09,0,2.72-1.2,2.61-2.75-.15-2.08.57-3.41,3.2-3.42,4,0,8.06,0,12.09,0,.31,0,.92.54.87.63-.23.46-.6,1.21-1,1.23-3.62.17-7.25.18-10.87.36-.45,0-.93.73-1.21,1.21-.09.15.34.61.62.86,1.1,1,2,2.16,3.89,2.24.48,0,.91.69,1.36,1.06-.32.21-.63.58-1,.6a34.64,34.64,0,0,1-6,.19c-3.44-.38-5.51,2.72-9.06,2.3a38.34,38.34,0,0,0-9.63.18c-2.25.32-4.34,1.51-6.48,2.34-.27.11-.65.58-.59.66a1.57,1.57,0,0,0,.9.66c5.09.39,9.6,3,15,2.49s11.27-.08,16.91,0c2,0,4.51-.59,5.95.22,4.86,2.75,10.14,1.41,15.21,1.93,1.58.16,3.75-.32,4.66.43,3.58,3,8.54.77,12.46,3.16,3.12,1.91,7.69.06,11.55,1.91s8.69.59,13.05,1a8.6,8.6,0,0,1,3.28,1c2.23,1.28,4.7.59,7,.91s3.74,2.57,6.55,2.22c4.94-.6,9.19,1.28,13.38,3.33,3.44,1.68,6.86,4.09,10.54,4.51,4.37.51,8.32,2.55,12.54,2.51s7.58,1.86,11.44,2.22a40.45,40.45,0,0,0,9.65,0c4-.62,6.66,2.44,10.33,2.12,5-.44,9.17,2.06,13.84,2.74.43.06.81,1,1,1.64.34,1.07-.81,2.06-2.16,1.82s-3.26-1.32-4.16-.87c-1.85.93-2.75.13-4.09-.55a2.73,2.73,0,0,0-3.26.28c-1.16,1.1-2.74,1.94-4.22.93-2.47-1.7-5.21-1.63-8-1.54-.7,0-2,.56-2,.75.16,1.2,1.42,1.17,2.46,1.4a1.66,1.66,0,0,1,.83.67c-.35.47-.78,1.2-1.25,1.25-2,.17-4,.1-6,.19-.32,0-.92.55-.87.65.23.48.8,1.34,1,1.29,3.61-1,5.74,2.35,9,2.23,4.92-.17,9.83-.36,11.48,5.25.19.66,2,.92,3,1.44,4.05,2.12,8.11,4.22,12.09,6.44,1.83,1,0,1.88-.62,2.31a25.48,25.48,0,0,1-4,1.92c-.87.41-.77.89,0,1.6a7,7,0,0,0,5.19,2.23c4.07-.16,4-.07,5.81,3a15.27,15.27,0,0,0,2.24,2.48c.52.54,1.1,1,1.59,1.58a1.31,1.31,0,0,1,.22.77c-.71.23-1.67.75-2.16.52-2.15-1-3.85-.82-6.29-.06-5.83,1.81.74,3.56-.25,5.52-.75,1.49-.75,2.73-3.5,3.29-.39.08-.83,0-1.2.1-.74.21-1.44.49-2.16.75.42.39.79,1.07,1.26,1.13a14.46,14.46,0,0,1,5.69,1.32,9.85,9.85,0,0,0,9,.14c1-.47,2.3-1.31,2.5.18.37,2.84,3.69,3.75,4.55,6.05a5.28,5.28,0,0,1-.13,4c-.85,1.57-2.52,1-4.09.34a12.75,12.75,0,0,0-4.48-1.17c-2.76-.09-2.82-1.9-3.57-3.45-.22-.45-1.1-.65-1.76-.94-.89-2.88-3.52-2-5.7-1.84-1.14.08-1.15.68-.61,1.42a5.78,5.78,0,0,1,1.22,2.74c.1,1.19-1.11,1.61-2.25,2.05-.63.25-3,.34-1,1.76a34.51,34.51,0,0,0,4.12,1.9c1.34.7,2.34,3.09,1.58,3.55a9.24,9.24,0,0,1-3.06,1.1c-3.93.78-4.17.94-4.15,3.75a13.19,13.19,0,0,0,.23,3.15c.16.61,1,1.63,1.29,1.57,5.29-1,6,3.56,8.8,5.58.71.52,1.25.62,1.89-.17,1.7-2.07,2.82,2,4.75.25,2.37-2.1,3,.94,4.41,1.54,1,.42,2,1,2.94,1.47.39,1.63,2.13,1.71,3.4,2.41.77.43,1.08,1.76,1.19,2.72,0,.36-1.07,1.18-1.66,1.18-3.63.05-7.8.89-10.75-.39-4.33-1.86-8.59-1.44-12.9-1.75-2.4-.17-4.82,0-6.89-1.37a1.08,1.08,0,0,0-.86.31c-.21.63-.58,1.44-.3,1.93a7.37,7.37,0,0,0,2.19,2.5c2,1.4,1.57,2.52.32,4.24-.81,1.14,0,2.69,2,3.13a8.65,8.65,0,0,1,2,1,6.56,6.56,0,0,1-2,1c-2.37.23-4.63,0-5,3.15-.17,1.39-2.67,2.5-4,3.85s-2.45.52-4,0a69.35,69.35,0,0,0-11.31-2.52c-1.5-.2-5.78-1.24-3,2.82.09.12-.8,1.08-1.31,1.14-1.59.17-3.22,0-4.82.17-.71.06-2,.46-2,.76-.08,1.27,1.29,1.12,2.25,1.47,1.46.54,1.26,1.63-.11,1.8-1.77.23-3.53.85-3.87,2.08-1.12,4.07-5.4,4.66-8.5,6.54-1,.58-2,1-3,1.57-1.47.83-1.08,1.55,1.32,3.08,2.09,1.33-.2,1.35-.84,1.73-.81.47-2.82.19-1.36,1.88.76.89,1.09,1.69,0,2.62a7.08,7.08,0,0,1-7.68,1.38c-1.43-.54-2.54-1.67-3.39.67a8.58,8.58,0,0,1-2.88,3.25c-4.27,3.34-4.31,3.3-1.36,6.66.49.56,1.09,1.05,1.55,1.63.91,1.15-.13,3.13-1.71,3.18-2.38.09-5.12.88-7-.58-2.6-2-4.74,1.66-6.38.31-3.6-3-8.57-.87-12.47-3.2-2-1.21-5.45-.51-8.21-.86s-4.75-2.42-7.87-2.06c-2.76.33-5.75-.47-8.42.08-3.16.65-5.62-2.19-8.62-.82-.84.38-1.26.25-1.72-.65s-.9-2.33-1.71-2.57c-1.83-.53-4-.05-5.68-1.29-2.06-1.49-4.66-.68-6.94-1.17-1.87-.4-3.57-1.43-5.43-1.88a6.12,6.12,0,0,0-4.51.89c-2.87,1.63-6.48,2-9,.3-2.78-1.84-6.46-.35-8.87-2.75-1.28-1.27-3-.49-4.24.45-.87.66-1.64.78-1.79-.07-.91-5.33-5.54-5.51-10-5.31-3.07.15-5.13-1.9-7.91-2-3.22-.14-6.45-.09-9.68-.15-1.47,0-2.13-2.43-4-1.18a6.64,6.64,0,0,1-7.73.06c-1.45-.88-2.93-1.2-4.34-.09-1.69,1.34-3.75,1.21-5.71,1.09a9.45,9.45,0,0,1-4.46-1.06c-1.86-1.29-3.19,1.95-5.1,0-1.52-1.52-2.52,1-4,1-.4,0-1,.19-1.18,0-2.87-2.55-7.18-1-10.05-2.48-3.84-2-7.76-1.41-11.68-1.8a2.13,2.13,0,0,1-1-.54c-3.15-2.4-6.9-1.23-10.44-1.36-3.56,2.57-8.21,2.11-12.3,3.23-13.31,3.62-21.5,6-31.09,5.2-2.39-.21-4.83.11-7.25,0-2.07,0-3.84,1-5.64,1.26-6.59,1-12.8,3.74-19.77,3a74.28,74.28,0,0,0-9.67,0c-3.55.09-6.93,0-10.45,1.63-2.55,1.21-6.32.38-9.52.61a8.09,8.09,0,0,0-3.3,1c-3,1.69-6.42.3-9.38,1.2-3.33,1-6.4,2.68-9.68,3.86-1,.38-2.39.07-3.6.12-1.6.06-3.48-.27-4.76.34-3,1.45-5.51,3.09-7.14-1.4-.51-1.4-3.06-1.08-4.41-.68-2.61.77-4.95,2.06-7.94,1.82-4.62-.38-8.52,1.47-11.91,4-2.31,1.71-4.27,3.39-7.14.94-4.77,2.18-9.94,1.4-15,1.45-2.91,0-5.56.26-7.8,2-3.44-.85-6.3,2.81-8.83,1.79-2.37-1-4.57.36-6-.5-2.78-1.66-4.05,1.32-6.42.95-2.73-.43-5.64.12-8.44-.08-2.64-.19-4.5.95-6.64,2-2.64,1.24-5.65-2-7.43-.88-2.34,1.49-4.19-2-6.09.3-.34.41-2.55-.63-3.77-.43a11.26,11.26,0,0,0-4.26,1.7c-2.18,1.43-3.33,1.39-3.74-1.23a2.22,2.22,0,0,0-1.7-1.19c-4,0-8.35-1.25-11.8.59-2.48,1.33-5.36-1.81-7.05,1.15-2.81.05-5.62.11-8.43.14-3.23,0-6.45.05-9.68.06-14.93,0-29.85.08-44.78.07a27.58,27.58,0,0,1-7.13-.59c-3-.83-5.7-2.45-8.67-3.42-3.36-1.11-5.73,2.51-9.15,1.8a13.08,13.08,0,0,0-2.42,0c-8.87,0-17.75-.07-26.62-.17a8.49,8.49,0,0,1-2.23-.63,14.54,14.54,0,0,1,2-2.36c2.45-1.84,6.61,0,8.66-3,.16-.23,1.6,0,2.22.3,6,3.19,12.57,1.11,18.85,1.25,1.75,0,3.55-1.42,5.31-2.22,1-.43.92-1.14-.25-1.38-3-.6-5.67-3.79-8.92-2.07-3.79,2-7.72,1.54-11.67,1.73-3.6.18-7.58-.4-10.69.78-3.57,1.35-7,1.22-10.55,1.47-2,.14-4,.08-6,.28-1.19.12-.84.66-.66,1.45.51,2.31-.5,3.18-2.29,2.12a11.46,11.46,0,0,0-6.69-1.83c-3.62.16-7.26,0-10.89,0-1.2,0-2.41,0-3.61-.09-.34,0-.65-.4-1-.62a8.42,8.42,0,0,1,1.32-1.08c.3-.16.81,0,1.19-.06,1.12-.26,2.22-.6,3.33-.9-.89-1.05-1.55-2.41-2.73-3.06A20.72,20.72,0,0,0,58,316.84c-3.13-.54-1.69-5-5.69-4.63-1,.09-1.17-.88-.19-1.3a4.29,4.29,0,0,1,1.08-.41c2.77-.43,2.56-2.27,2.52-4s-1.5-2.32-3.2-2.32c-2.85,0-5.48-.1-7.95-1.83-.93-.66-3.1-.35-4.53,0a12.91,12.91,0,0,0-5.26,2.3c-2.59,2.32-4.25-1.29-6.41-.43-1.73.69-3.43,2.61-5.32,1.24A8.85,8.85,0,0,1,20.14,301c-.72-2.31-2.41-3.29-4.69-4.19C14,296.23,14.72,293.53,16.26,293.66ZM60.79,82.86h0l6.8,0h0Zm19.57-3.23h0c.57-.34,1.12-.88,1.72-.94C81.48,78.75,80.93,79.3,80.36,79.63ZM99.42,97.7c4.45-.19,9.14,1.07,13.19-1.7a4.32,4.32,0,0,1,1,.53,4.75,4.75,0,0,0-1-.54C108.56,98.77,103.87,97.51,99.42,97.7Zm99.47-80.88h0l-2-.67Zm448.83,145c-.26,0-.5.39-.75.6l.41.58-.4-.57C647.22,162.22,647.46,161.84,647.72,161.83Zm-4.39.2c.11.18.36.42.3.54.06-.12-.19-.36-.3-.54-.24,0-.56-.09-.71,0C642.77,161.94,643.09,162,643.33,162Zm19.42,8.1h-1.22l-.36.09.36-.09Zm-137.2-38.72h0l-2.11-.75ZM243,138.69c-.13.13-.25.28-.38.39.14.2.28.39.41.59-.13-.2-.27-.39-.41-.59C242.72,139,242.84,138.82,243,138.69Zm65.67,144.62c-.17.12-.33.27-.49.37.25.19.5.45.75.67-.25-.22-.5-.48-.75-.67C308.31,283.58,308.47,283.43,308.64,283.31ZM104.55,249.92c.29-.16.57-.36.85-.54-.28.18-.56.38-.85.54Z"/><path class="cls-3" d="M764.3,165.28a2.69,2.69,0,0,1-1,.47c-2,0-4.63.71-5.91-.14-3.61-2.41-7.59-1.87-11.52-2.12-1.19-.07-2.78.26-3.49-.29-3.8-2.89-8.84-.49-12.62-2.38-4.19-2.1-8.61-1.15-12.91-1.48a20.19,20.19,0,0,1-6.62-2c-3.17-1.34-6.42-2.77-10.21-2.29s-7-.7-10.19-2.11c-6-2.65-12.31-4.62-19.24-4.3a12.8,12.8,0,0,1-3.48-.41c-.91-.21-.87-.85-.08-1.57,2-1.84-1.67-2.69-1-4.3a69.87,69.87,0,0,1,8.32.1c2.68.32,5.23,1.47,7.91,1.83s5.65.07,8.43.4c1.48.18,3.35,1.93,4.2,1.54,3.72-1.71,6.61,0,9.52,1.31a10.11,10.11,0,0,0,5.76,1c5.42-.83,9.91,2.37,15.08,2.42,2.26,1.86,5.06,1.89,7.89,1.8,6.49-.21,12.35,1.82,18.37,3.55,3.88,1.11,7.46,2.18,10.09,5a22.86,22.86,0,0,0,2.53,2.27C764.87,164.38,765,164.88,764.3,165.28Z"/><path class="cls-3" d="M642.11,140.34c.37-.06.94.7,1.41,1.08-.32.21-.65.59-1,.59q-9.56,0-19.09,0v.06q-9.53,0-19,0a1.31,1.31,0,0,1-.85-.69c-.08-.15.27-.65.5-.7,3-.57,5.28-2.78,8.74-2.57,4.77.28,9.58-.1,14.35.08C632.21,138.37,636.78,141.32,642.11,140.34Z"/><path class="cls-3" d="M70.13,184.76c.08,0,.16,0,.25,0s0,.05,0,.08l-.21.11C70.16,184.91,70.13,184.84,70.13,184.76Z"/><path class="cls-3" d="M59.06,186.91c-3.25.13-4.51,2.62-6.81,3.84A5.49,5.49,0,0,1,50,191c-1.21,0-.65-.87.22-2.35,2.4-4.11,7.72-3,11.11-5.25,2.16-1.41,4.61-.69,6.92-.64a1.91,1.91,0,0,1,1.86,2C66.08,184,62.86,186.77,59.06,186.91Z"/><path class="cls-3" d="M687.45,101.82l.39,0,0,.35-.31-.13C687.53,102,687.48,101.89,687.45,101.82Z"/><path class="cls-3" d="M681.05,101c-3-2.74-6.54-3.58-10.68-3.45a1.79,1.79,0,0,1-1.91-1.89c2.7-.07,5.51-.55,8,0,4.37.9,9,1.91,10.94,6.22C685.23,101.85,682.77,102.54,681.05,101Z"/><path class="cls-3" d="M42.18,323.48c2.38,1.62,5,1.85,7.84,1.82,2.33,0,4.67.27,7,.47.25,0,.45.41.68.63-.32.21-.64.59-1,.6-4.35.11-8.71.26-13.06.16a6.7,6.7,0,0,1-3-1.4,4.26,4.26,0,0,1-1.39-1.65C38.93,323.49,41.12,322.76,42.18,323.48Z"/><path class="cls-3" d="M.78,279.42c.28-.67,2.67-1,3.06-.4,1,1.46,1.85,3,2.72,4.45.1.18,0,.67-.14.69a24.18,24.18,0,0,1-3.37.56c-1.84.1-2.88-.72-3-2.83A23.11,23.11,0,0,1,.78,279.42Z"/><path class="cls-3" d="M687.4,333c.84-.53,1.85-1.38,2.53.17a1.47,1.47,0,0,1,0,1.05,2.5,2.5,0,0,1-2.67,1.55c-2-.09-4-.13-5.89-.41-.35,0-.54-1-.8-1.58C682.81,333.45,685.25,334.36,687.4,333Z"/><path class="cls-3" d="M680.54,333.82h-.16v-.09l.12,0A.49.49,0,0,1,680.54,333.82Z"/><path class="cls-3" d="M700,138.19h-.26l-.09-.2h.32C699.92,138.06,700,138.12,700,138.19Z"/><path class="cls-3" d="M709.91,138.27a1.87,1.87,0,0,1,1.84,1.83c-3.33,0-6.67.07-10-.06a1.8,1.8,0,0,1-1.8-1.85C703.27,138.2,706.6,138.13,709.91,138.27Z"/><path class="cls-3" d="M225.55,10.32c-2.32.1-3.46-1.44-4.52-2.93,0,0,1.11-1,1.46-.91,1.72.52,3.36,1.22,5,1.87A1.89,1.89,0,0,1,225.55,10.32Z"/><path class="cls-3" d="M227.51,8.35s0-.08,0-.12l.33-.09a2.81,2.81,0,0,1-.1.31Z"/><path class="cls-3" d="M674.65,331.82c1.87-.15,3.78-.07,5.67-.06l.06,2a4.83,4.83,0,0,0-1,.22c-1,.42-2.05,1.38-2.86,1.22-1-.19-1.77-1.28-2.59-2C673.3,332.6,673.56,331.91,674.65,331.82Z"/><path class="cls-3" d="M779.56,245.55a2.32,2.32,0,0,1-1,.51,4.15,4.15,0,0,1-1.18-1.5,6.63,6.63,0,0,1-.08-2.09c.06-1.95.44-2.05,2.81-.88.6.29,1.24.5,1.87.73C782.07,243.9,780.57,244.59,779.56,245.55Z"/><path class="cls-3" d="M782,242.32s0-.07,0-.11h.23a1.23,1.23,0,0,1,0,.2Z"/><path class="cls-3" d="M144.32,1.5a4,4,0,0,1-1-.56c.32-.22.59-.55,1-.63A6.3,6.3,0,0,1,146.53,0a25.31,25.31,0,0,1,3.27.84l-2.7,1C145.85,1.69,145.07,1.65,144.32,1.5Z"/><path class="cls-3" d="M33.07,119.69a.67.67,0,0,1,.06.57c-.71.25-1.45.44-2.57.76-.78-.18-1.89-.42-3-.72-.08,0-.15-.48,0-.59C28.42,118.84,32.13,118.83,33.07,119.69Z"/><path class="cls-3" d="M605.58,55.25h-.33a1.72,1.72,0,0,0,0-.24h.29C605.52,55.11,605.56,55.17,605.58,55.25Z"/><path class="cls-3" d="M611.81,56.55c0,.11-.59.6-.87.57-2-.19-4.66.89-5.36-1.87,1.81,0,3.63,0,5.44.11C611.33,55.38,611.66,56.11,611.81,56.55Z"/><path class="cls-3" d="M557.56,309a2.16,2.16,0,0,1,.87-.27,14.84,14.84,0,0,1,.75,1.51c.23,1.49-.74,2-1.91,2a7.1,7.1,0,0,1-2.06-.46,4.91,4.91,0,0,1,.64-1.54A7.72,7.72,0,0,1,557.56,309Z"/><path class="cls-3" d="M229.17,331.88a22.06,22.06,0,0,1,2.56-.14,1.83,1.83,0,0,1,.81,0,19.8,19.8,0,0,1,1.94.87c-.53.36-1,.93-1.6,1a11.54,11.54,0,0,1-3.42,0c-.46-.07-.82-.78-1.14-1.24A1.77,1.77,0,0,1,229.17,331.88Z"/><path class="cls-3" d="M69.88,137.91a10.45,10.45,0,0,1-1.44-1.06c.29-.21.56-.59.87-.61,1.45-.08,2.91-.1,4.36-.05.3,0,.58.39.87.6-.43.38-.79.94-1.3,1.07a8.78,8.78,0,0,1-2.24,0v0A3,3,0,0,1,69.88,137.91Z"/><path class="cls-3" d="M790.67,248.3c-.26-.24-.72-.45-.76-.72a20.63,20.63,0,0,1-.38-3.83c0-.29.91-.57,1.44-.88a3.89,3.89,0,0,1,.44,4.67A3.31,3.31,0,0,1,790.67,248.3Z"/><path class="cls-3" d="M541.41,10.52c-.78-.21-1.89-.48-3-.81-.09,0-.14-.51,0-.63,1-.93,4.49-.92,5.5,0,.13.12.1.6,0,.63C543.24,10,542.51,10.19,541.41,10.52Z"/><path class="cls-3" d="M665.81,142.27H666a.5.5,0,0,0,0,.12h-.11C665.84,142.35,665.82,142.32,665.81,142.27Z"/><path class="cls-3" d="M659.39,141.55c-.09-.11,0-.55.11-.57a25.58,25.58,0,0,1,3.24-.58c1.6-.14,2.87.26,3.07,1.87-1.85,0-3.69,0-5.54-.11C660,142.15,659.62,141.8,659.39,141.55Z"/><path class="cls-3" d="M801.05,260.5a3.57,3.57,0,0,1-.87.7,2.32,2.32,0,0,1-3.3-1.68c.27-.62.55-1.23.83-1.84Z"/><path class="cls-3" d="M611.93,319c1.62-.11,2.78.44,3,1.95-1.81,0-3.62,0-5.43-.12-.32,0-.66-.35-.88-.62-.1-.11,0-.57.16-.6A20.63,20.63,0,0,1,611.93,319Z"/><path class="cls-3" d="M590.5,311.38a21.5,21.5,0,0,1-2.88.85c-.18,0-.54-.74-.82-1.14l1.92-.64Z"/><path class="cls-3" d="M37.86,316.93a24.6,24.6,0,0,1,3,.84l-1.77,1.05-2-.67C37.34,317.72,37.7,316.9,37.86,316.93Z"/><path class="cls-3" d="M91.18,327.61a24.44,24.44,0,0,1,3.23.56,7.05,7.05,0,0,1-2.06,1,5.75,5.75,0,0,1-1.94-.48C90.67,328.34,91,327.6,91.18,327.61Z"/><path class="cls-3" d="M457.51,10.35h.29l-.1.21h-.14A1.74,1.74,0,0,0,457.51,10.35Z"/><path class="cls-3" d="M453.76,9c0-.09.56-.42.89-.47,1.68-.24,2.7.31,2.86,1.79a22.69,22.69,0,0,1-3.09-.12C454.12,10.18,453.88,9.47,453.76,9Z"/><path class="cls-3" d="M583.51,66a5.8,5.8,0,0,1,2,.8l-1.92.9-2.08-.82A5.45,5.45,0,0,1,583.51,66Z"/><path class="cls-3" d="M55.16,89c-.32,0-.89-.37-.86-.48.11-.44.34-1.18.64-1.22A21,21,0,0,1,58,87.14C57.81,88.57,56.84,89.18,55.16,89Z"/><path class="cls-3" d="M58,87.14c0-.08,0-.12,0-.2h.12a1.54,1.54,0,0,1,.08.19Z"/><path class="cls-3" d="M23.83,103.93a5.08,5.08,0,0,1-1.67-.85c.59-.33,1.14-.87,1.76-.92s1.82.29,1.86.57C26,103.93,24.75,104,23.83,103.93Z"/><path class="cls-3" d="M40.38,117.58c.28,1.28-1,1.25-1.87,1.15a6.7,6.7,0,0,1-1.8-.77A5.49,5.49,0,0,1,38.5,117C39.12,117,40.32,117.28,40.38,117.58Z"/><path class="cls-3" d="M50.07,123c-.31,0-.54-.76-.68-1.2,0-.09.56-.43.89-.46,1.61-.19,2.73.24,2.89,1.76A21.28,21.28,0,0,1,50.07,123Z"/><path class="cls-3" d="M53.17,123.1h.26a1.74,1.74,0,0,0-.1.19h-.12C53.21,123.22,53.17,123.18,53.17,123.1Z"/><path class="cls-3" d="M579.62,127.67c1,.19,1.2.8.69,1.23a2,2,0,0,1-.92.51c-1.68.19-2.74-.35-2.9-1.86A17.12,17.12,0,0,1,579.62,127.67Z"/><path class="cls-3" d="M576.49,127.55h-.29c0-.08,0-.13.07-.21h.17A1.08,1.08,0,0,0,576.49,127.55Z"/><path class="cls-3" d="M785.06,222.16c-.49-.86-.85-1.76.25-2.49.18-.11.52,0,.78-.08.26.56.74,1.13.69,1.67s-.62,1.06-1,1.6A3.88,3.88,0,0,1,785.06,222.16Z"/><path class="cls-3" d="M780.87,219.37c.38.55,1,1.08,1,1.63s-.6,1.14-.94,1.71l-1.09-1.59Z"/><path class="cls-3" d="M47.34,225.68a3.49,3.49,0,0,1,.9.65,3.9,3.9,0,0,1-.87.67c-1.06.42-2.16.76-3-.27-.13-.15,0-.45,0-.54C45.13,224.94,46.26,225.33,47.34,225.68Z"/><path class="cls-3" d="M777.19,231.8v-.21l.16.06a.37.37,0,0,0,0,.11Z"/><path class="cls-3" d="M776.43,235.25c-.53-.24-1.33-.55-1.41-.95-.34-1.5.45-2.37,2.17-2.5,0,.93.06,1.87,0,2.8C777.15,234.85,776.54,235.3,776.43,235.25Z"/><path class="cls-3" d="M786.88,244c.09.58-.18,1.6-.61,1.77-1.64.63-1.6-.61-1.69-1.5a13.17,13.17,0,0,1,.06-1.88C785.85,242.43,786.73,242.94,786.88,244Z"/><path class="cls-3" d="M670.17,333l-.77.32-.82-.57.76-.64Z"/><path class="cls-3" d="M153.22.59c.22-.08.51-.3.71-.25a2.58,2.58,0,0,1,.82.52l-1.53.33Z"/><path class="cls-3" d="M354.83,3.83c-.92-.37-1.07-.85-.45-1.24.18-.1.52,0,.79,0,.11.18.39.45.32.59S354.93,3.87,354.83,3.83Z"/><path class="cls-3" d="M466.19,5.84c-.26,0-.58-.38-.87-.6.26-.25.51-.7.79-.72s.59.4.89.63C466.73,5.4,466.48,5.81,466.19,5.84Z"/><path class="cls-3" d="M227.86,8.14c.18-.51.31-1.08.7-1.31.64-.39,1.25.15.81.71C229.1,7.88,228.45,8,227.86,8.14Z"/><path class="cls-3" d="M139.29,27.14c-.27,0-.59-.39-.88-.61l.8-.79.9.7C139.84,26.69,139.59,27.12,139.29,27.14Z"/><path class="cls-3" d="M609.52,33.07a3,3,0,0,1-1.5.59c.19-.5.33-1.06.72-1.29C609.38,32,610,32.53,609.52,33.07Z"/><path class="cls-3" d="M608,33.66c0,.11-.07.22-.11.31h-.14c0-.08-.09-.12-.1-.2Z"/><path class="cls-3" d="M49.3,86.33c-.22-1.08.56-1.17,1.34-1.26A10,10,0,0,1,50,86.35C50,86.44,49.3,86.38,49.3,86.33Z"/><path class="cls-3" d="M50.78,84.79,51,85l-.4,0C50.68,85,50.73,84.88,50.78,84.79Z"/><path class="cls-3" d="M666.67,94.17a1.32,1.32,0,0,1,.77-.08,12,12,0,0,1,.68,1.34C667.29,95.36,666.47,95.29,666.67,94.17Z"/><path class="cls-3" d="M668.12,95.43l.33,0a1,1,0,0,0,0,.17h-.23A2.12,2.12,0,0,0,668.12,95.43Z"/><path class="cls-3" d="M662.29,95.14c-.27,0-.59-.35-.88-.54.26-.25.52-.68.8-.7s.61.38.91.6C662.84,94.73,662.59,95.11,662.29,95.14Z"/><path class="cls-3" d="M49.67,96c1.21.34,1.24.85.09,1.3-.15,0-.54-.4-.81-.62C49.19,96.44,49.53,96,49.67,96Z"/><path class="cls-3" d="M687.87,102.15a13.53,13.53,0,0,1,1.46.6c.09,0,0,.62-.07.63C688.07,103.49,687.93,102.84,687.87,102.15Z"/><path class="cls-3" d="M632.4,107.23c0-.06.5-.42.77-.65.3.19.89.47.86.55C633.6,108.09,633,108.13,632.4,107.23Z"/><path class="cls-3" d="M685.42,125.13c0,.1,0,.2,0,.3l-.19-.13a.19.19,0,0,1,0-.07Z"/><path class="cls-3" d="M686.93,123.9c.07,0,.16.59.07.64-.51.23-1,.41-1.58.59C685.49,124.38,685.64,123.68,686.93,123.9Z"/><path class="cls-3" d="M622.72,130.63c-.05-.09.49-.47.75-.71.32.22.91.52.88.61C623.92,131.52,623.3,131.56,622.72,130.63Z"/><path class="cls-3" d="M57.94,131.83c0-.08.08-.15.11-.23h.18c0,.06,0,.13.05.2Z"/><path class="cls-3" d="M56.45,133.1c-.2-1.16.64-1.22,1.49-1.27a10.71,10.71,0,0,1-.69,1.35A1.35,1.35,0,0,1,56.45,133.1Z"/><path class="cls-3" d="M712.17,140.35l-.39,0a.76.76,0,0,0,0-.21H712C712.08,140.18,712.13,140.26,712.17,140.35Z"/><path class="cls-3" d="M713.63,141.64a1.48,1.48,0,0,1-.79.08,12.38,12.38,0,0,1-.67-1.37C713,140.42,713.83,140.49,713.63,141.64Z"/><path class="cls-3" d="M73.88,162c.24,0,.54.38.81.59l-.81.64-.83-.58C73.33,162.38,73.58,162,73.88,162Z"/><path class="cls-3" d="M771.25,167.5c-.13.05-.55-.43-.83-.66.25-.25.6-.76.73-.72C772.34,166.48,772.38,167,771.25,167.5Z"/><path class="cls-3" d="M778.51,171.68c-.16.06-.56-.37-.83-.57.25-.23.58-.69.75-.65C779.64,170.76,779.68,171.26,778.51,171.68Z"/><path class="cls-3" d="M51.07,208.51c-.11,0-.21-.09-.32-.12s0-.21,0-.31a2,2,0,0,0,.26.07C51.05,208.27,51.06,208.39,51.07,208.51Z"/><path class="cls-3" d="M52.51,209.82c-1.32.16-1.37-.58-1.44-1.31a15.85,15.85,0,0,1,1.54.6C52.71,209.16,52.59,209.81,52.51,209.82Z"/><path class="cls-3" d="M783.74,240.81c.34.07.48.87.69,1.42l-2.18,0C782.32,241.4,782.44,240.54,783.74,240.81Z"/><path class="cls-3" d="M784.43,242.23h.22a1,1,0,0,0,0,.17.86.86,0,0,0-.16,0A1,1,0,0,1,784.43,242.23Z"/><path class="cls-3" d="M792,261.33c0,.06-.05.14-.08.2l-.11-.06s0-.05,0-.08Z"/><path class="cls-3" d="M793.56,260.67c-.27.37-1,.48-1.59.66.21-.53.34-1.16.76-1.41C793.36,259.55,794,260.09,793.56,260.67Z"/><path class="cls-3" d="M24.9,264.33c.23-.09.51-.29.7-.24a2.77,2.77,0,0,1,.79.5l-1.49.33Z"/><path class="cls-3" d="M8.49,266.16c.29,0,.62.38.92.6-.27.23-.52.63-.81.64s-.61-.34-.92-.53C8,266.61,8.2,266.18,8.49,266.16Z"/><path class="cls-3" d="M11.77,294.25,10.6,295l-.43-.69.77-.74Z"/><path class="cls-3" d="M727.62,306.55c.26,0,.56.38.85.6-.26.22-.49.61-.77.63s-.56-.34-.84-.54C727.11,307,727.35,306.56,727.62,306.55Z"/><path class="cls-3" d="M529,306.39c.3.23.9.54.86.66-.42,1.05-1,1.08-1.62.09C528.22,307,528.77,306.65,529,306.39Z"/><path class="cls-3" d="M583.2,311.39c-.25.23-.48.63-.75.65s-.55-.35-.83-.56l.73-.77Z"/><path class="cls-3" d="M563.3,310.94c.13.19.4.43.35.57s-.51.66-.6.63c-.86-.32-1-.76-.45-1.13C562.76,310.9,563.06,311,563.3,310.94Z"/><path class="cls-3" d="M551.48,311.67l-.72.33-.77-.56.7-.64Z"/><path class="cls-3" d="M425,315c.3.22.87.52.83.63-.43,1-1.05,1.06-1.6.07C424.15,315.61,424.7,315.25,425,315Z"/><path class="cls-3" d="M601.71,317.05c.33.24.92.55.88.65-.44,1-1.07,1.05-1.63.08C600.9,317.68,601.45,317.3,601.71,317.05Z"/><path class="cls-3" d="M47.38,317.33a2.65,2.65,0,0,1,.78.5l-1.41.37c0-.2,0-.39-.07-.59C46.91,317.51,47.19,317.28,47.38,317.33Z"/><path class="cls-3" d="M350.32,319.44c.11.17.38.41.32.53s-.52.66-.63.62c-.89-.3-1-.75-.43-1.13C349.74,319.36,350.06,319.44,350.32,319.44Z"/><path class="cls-3" d="M631.31,322.33a3,3,0,0,1-1.49.61c.16-.5.28-1.05.65-1.27C631.11,321.29,631.73,321.82,631.31,322.33Z"/><path class="cls-3" d="M629.82,322.94c0,.1-.06.21-.1.31l-.35,0c0-.08.08-.16.12-.24A3.18,3.18,0,0,1,629.82,322.94Z"/><path class="cls-3" d="M621.44,321.63c.39.24.51.82.68,1.33-.58-.16-1.24-.28-1.51-.63C620.2,321.79,620.82,321.26,621.44,321.63Z"/><path class="cls-3" d="M616.79,322.45a1.28,1.28,0,0,1-.8.11,12,12,0,0,1-.71-1.44C616.19,321.15,617,321.24,616.79,322.45Z"/><path class="cls-3" d="M615.28,321.12H615c0-.08-.05-.13-.06-.21h.29Z"/><path class="cls-3" d="M629.37,323.27a14.37,14.37,0,0,1-.72,1.41,1.29,1.29,0,0,1-.78-.09C627.64,323.41,628.48,323.31,629.37,323.27Z"/><path class="cls-3" d="M624.1,324.56a1.47,1.47,0,0,1-.83.12,12.15,12.15,0,0,1-.73-1.44C623.44,323.28,624.31,323.34,624.1,324.56Z"/><path class="cls-3" d="M622.54,323.24h-.32a2.15,2.15,0,0,1-.1-.27l.31.08C622.47,323.11,622.5,323.18,622.54,323.24Z"/><path class="cls-3" d="M680.67,331.52l-.13.24h-.22a1.48,1.48,0,0,0,0-.21Z"/><path class="cls-3" d="M682.16,330.24c.18,1.15-.65,1.22-1.49,1.28a11.71,11.71,0,0,1,.71-1.36C681.44,330.07,682.15,330.18,682.16,330.24Z"/></g></g></g></g></svg>