<svg xmlns="http://www.w3.org/2000/svg" viewBox="0 0 504.57 428.72"><defs><style>.cls-1{fill:#333;}.cls-2{fill:#ccc;}</style></defs><g id="Layer_2" data-name="Layer 2"><g id="Layer_1-2" data-name="Layer 1"><path class="cls-1" d="M257.17,26.77,0,67.61l2.12,41.52,20.47,7.8L22.1,324.79l10.36,5.7,11.18-5.16,3.47-199.07,177.44,67.55.67,229,13.76,6,13-6.23,1.6-227.73,201.72-62.33L454.83,331l10.36,5.69,11.18-5.15L480,124.81l21.58-6.67,3-42ZM448.72,86.53l-191-43.34L56.36,80.05,33.82,72.57l224-39.06L472.58,80.14Z"/><path class="cls-2" d="M335.59,103.84s-13.51-1.13-19.93-5c-4.05,4.81-27.78,25.16-52.17,17.45-18.26-10.88-28.81-15.25-43.31-17.4-14.66-4-11.89-6.9-22.59-8.62S173.79,85.19,166.84,70c4.54-4.15,8.34-3.73,8.34-3.73l5.77,1.4S170.6,52.31,178,37.73c-6-8.15-10.09-12.32-11-22.42C176,13.42,186,20.48,191,17.78c4.64-3,20.84-7.43,25.59-4.82,4.88-4.56,10.57-13,10.57-13s3.94,4.29,3.25,15.92c6.8,4.7,2.49,3.77,12.81,12.16,0,0,80.77-25.44,78.84,55.15,4,6,11.63,7.23,11.63,7.23s39.56,5.79,48.94,39.29c8.82,31.5-5.79,56.34-5.79,56.34s-7.36,11.38-10,1.54A16.59,16.59,0,0,1,369.38,177s8.67-21,2.19-45.15C366.14,111.58,335.59,103.84,335.59,103.84Z"/></g></g></svg>