<svg xmlns="http://www.w3.org/2000/svg" viewBox="0 0 548.48 514.64"><defs><style>.cls-1{isolation:isolate;}.cls-2{fill:#f6f6f6;mix-blend-mode:multiply;}</style></defs><g class="cls-1"><g id="Layer_2" data-name="Layer 2"><g id="Layer_2-2" data-name="Layer 2"><path class="cls-2" d="M19.11,172.72c-.21,1.05-1.89,1.71-1.48.2.87-.93,0-1.59,0-3.36-.31,3.36-2.34,8.59-1.46,9.85C16.07,177,18,173.8,19,174.68,18.79,174.24,19.46,173,19.11,172.72Z"/><path class="cls-2" d="M548.48,292.28c0-5.53-3.12-8.48-7.24-6.43a25.7,25.7,0,0,0-1.74,3.71,35.6,35.6,0,0,0-1.64,4.93,26.34,26.34,0,0,0-.64,11.05c2.74-.38,3.52,2.2,3.6,5.82-1.61-.42-1.68,3.67-2.94,4.33,1.47,0,.43,2.48,1.24,2.21a3.51,3.51,0,0,0-1.4,1.82c1.67.07.17,4.24-.1,6.78,1.23.17,1.1-.57,2,.37,1.69-2.89,3.31-9.52,4.08-11.7C542.72,308.86,548.47,300.57,548.48,292.28Z"/><path class="cls-2" d="M22.28,239.71c-.08-1.62,1.4-3.25.51-4.28C22.42,235.91,21.61,239.27,22.28,239.71Z"/><path class="cls-2" d="M44.42,131.85c.75-1.33.44-1.94,1.63-3.54.26.53.25,1.25.51,1.78a30.05,30.05,0,0,1,1.63-3.56c.69-1.17,1.47-2.36,2.31-3.56,1.67-2.42,3.55-4.89,5.43-7.38a109.14,109.14,0,0,0,9.76-14.65c3.88-1.29,3.75-6.91,6.76-7-1.09-.3-.79-.06-1.29-1.06-1.78,3.78-6.23,7.93-8.27,8,0,.13-.19.15-.57,0a1.17,1.17,0,0,0,.57,0c.17-.43-.82-2.25,1.25-2.78,0-1.15-2.07.55-1-.81a21,21,0,0,1,3.42-1.5,26.6,26.6,0,0,0,2-3.43c.37.16.67.68,1.2.13-1.86-.78,1.82-2.89,2.72-3.71-1.67.13-4,3.1-5.63,3,.48,1.16-.67,1.05-1.87,2.74-.37-.16-.66-.67-1.2-.11,0,.61-2.5,1.86-2.7,3.77,1-1,1.31-.77,1.22.1-2.51,2.17-4.11,5.73-7.25,7.77,1.33,1.34-.79,2.79-2.47,4.7.34.37,1.15.49.72,1.29-.84,1-1.48.58-2.22.88.71-.89,1.7-3.56.29-2.18.74.6-2.82,3.58-2.07,4.17.77-1.22,1.42-1.58,2-1.08-1.62.86-.21,1.53-2,3.43.59.67,1.35,1.26,1.23,2.32-2.32.41-1.47,3.35-2.7,5.2-1.67,1.06-3.12,2-4.62,1.83-.82,1.9-1.36,2.31-1.33,3,.75-1.13,1.42-.7,2.12-1-1.37,3.87-2.34,4.93-4.79,8.52a3.79,3.79,0,0,1-1,3.88C40,139.71,42.07,132.35,44.42,131.85ZM58.1,107.46c1.73,0-2.14,2.92-.4,2.89-.48.6-.82.11-1.2,0A7.61,7.61,0,0,1,58.1,107.46Z"/><path class="cls-2" d="M19.1,174.81a1.59,1.59,0,0,0-.13-.13A.21.21,0,0,0,19.1,174.81Z"/><path class="cls-2" d="M29.55,280.4c-1.08.2-1.08,11.57,1.09,13.26-.45-5.81-1-11.09-1.17-16.49-.13-2.7-.27-5.42-.41-8.26s-.13-5.78-.2-8.91c-1.47,1.57-1.36,4.58-1.1,7.67s.92,6.27.14,8.36C28.4,277.59,29.19,278.58,29.55,280.4Z"/><path class="cls-2" d="M15.43,180.57c-.25,1.5-2.18,4.75-.8,4.6C15.15,183.37,16.3,180.94,15.43,180.57Z"/><path class="cls-2" d="M52,121.6c1.36,1.09,3.15-2,4.77-2.57C55.33,118.55,53.66,119.36,52,121.6Z"/><path class="cls-2" d="M23.15,160.12c.43-1.1.92-1.29,1.45-.83,1.31-2.64.57-3.55.9-5.36,1-1.61,2.1-1.92,3.14-3a15.84,15.84,0,0,1,1.93-4.78,35.11,35.11,0,0,0,3.1-6c-1.39,2.89-2.69,3-4,3.93-.39,2.46-1.65,3.63-1.63,5.8-.56-.28-.86.18-.86,1.08-.71-.42-1.42-.77-2.06.55.27,1.7-.83,4.53-.58,6.24a8.72,8.72,0,0,0-2,1.33C22.92,159.29,23,159.71,23.15,160.12Z"/><path class="cls-2" d="M2.61,269.24l0-2c-.62-.13-.74.77-1.33.7a4,4,0,0,0,.64,2.63C1.86,268.66,2,268.32,2.61,269.24Z"/><path class="cls-2" d="M3.67,301.61c-1.79-3.86.4-7.1-.14-11.29-.4-.06-.93.22-1-.54a8.74,8.74,0,0,0,1.16-2.12c-1.17-4.31-.42-13-2.37-16.38-.53,1.1,0,4.89-1.27,2.71.07,3.31,1,.33,1.45,1.92-.25.16-.34.58-.24,1.35-1.56-.86.05,4.37-.52,6.7.56,1.59.9-1.29,1.37.54-1,1.55-1,4.23.23,4-.31.38.59,5.12-.63,3.41.88,7,0,6.46,1.36,11.85,1.06-.77.79-.22,1.86-1-1.1-2.45-.26-3.56-1-5.16C3.17,298.16,4.31,301.24,3.67,301.61Z"/><path class="cls-2" d="M34.84,221.83c.7-2.53.17-3,1-4.63C34.74,216.58,34,221.94,34.84,221.83Z"/><path class="cls-2" d="M77.48,416.64c1.64.59,4.83,6.12,5.54,6.32C82.54,421.7,77.33,414.65,77.48,416.64Z"/><path class="cls-2" d="M254,511.47a46.26,46.26,0,0,1-8.36-1.06c0,.66,2.3,1.08,4.51,1.28S254.48,511.6,254,511.47Z"/><path class="cls-2" d="M64.15,406.5c1.24,2.07,2.28,2.07,3.21,1.12C66.12,405.58,65.09,405.57,64.15,406.5Z"/><path class="cls-2" d="M247.3,507.74l-.62-.43c-.67.44-.62.82.17,1C246.94,508.36,247.15,508,247.3,507.74Z"/><path class="cls-2" d="M37.25,207.82c-.51,1.43-1.15,4.62-.52,5.34C36.79,211.5,37.53,209.08,37.25,207.82Z"/><path class="cls-2" d="M255.22,511c.08.19.63.17,1.06.2l-.3-1.31C255.49,510.1,254.88,510.28,255.22,511Z"/><path class="cls-2" d="M32.54,193.58c1.08-.93,1.31-5.89,0-4.47C33.72,189.48,32.25,192.38,32.54,193.58Z"/><path class="cls-2" d="M32.27,302.37c-1.87-.75-2.47-4.74-4.27-5.72.38,3,2,2.83,2.29,6C31.26,301.29,32.45,304.65,32.27,302.37Z"/><path class="cls-2" d="M36.89,229.84A8.12,8.12,0,0,0,37,234C37,232.62,38.2,229.54,36.89,229.84Z"/><path class="cls-2" d="M32.62,307.69c.4,3.11-1.64-3.53-1.47.25,1-.32.77,3.07,1.27,4.29C33.74,312.61,33.83,308.13,32.62,307.69Z"/><path class="cls-2" d="M36.08,245l.33-2.89C35,241.66,35,245,36.08,245Z"/><path class="cls-2" d="M34.6,223c-.55-.6-1,.77-1.16,2s.12,2.24.62.94C33.14,225.23,34.71,224.48,34.6,223Z"/><path class="cls-2" d="M122.8,52.66c.21-1.38-4.1,1.52-2.67,1.79Z"/><path class="cls-2" d="M531.69,204.67c.16,1.17-.41-.18-.81-.46,1.69,4.56,2,7,3.1,10.7C534,211.64,533.46,207.17,531.69,204.67Z"/><path class="cls-2" d="M529.28,213.35a28.52,28.52,0,0,1,2.06,5.5c1-.8.78-.25,1.83-1.06.09,1.06.76,1.63.76.49-1-.6-1.4-3.61-2.47-4.12.1.77.41,1.8,0,2-1-1.11.58-2.86-.86-4.46C529.82,211.78,529.37,212.35,529.28,213.35Z"/><path class="cls-2" d="M507.22,143.92c-.12-.93-.87-2.32-.37-2.82,1.59,2.71,2,7.73,3.07,5.84-1.2-.65-1.5-3.74-1.28-4.58-1-.32-4.87-5.44-3.91-3.83C506.72,140.9,506,143.27,507.22,143.92Z"/><path class="cls-2" d="M530.29,222.39a6.34,6.34,0,0,1,.3-2C528.73,213.41,529.92,221,530.29,222.39Z"/><path class="cls-2" d="M515.29,157.53c-.5.46-.95-.53-1.46-.75.11,2.08-1.87,2.26-3.26-1.3-1.3-.09.45,2,.86,3.2C513,158.29,515.23,160.27,515.29,157.53Z"/><path class="cls-2" d="M519,167.4l1,2.44-1.53.66c1.77,1.62,2.84,5.32,3.54,3.5A3.43,3.43,0,0,0,523.5,177c-1.4-4.84-3.07-5.75-3.9-9.82-.39.1-.79.14-1.1-.95-.14,2-2,.58-1.39,2.76C517.9,170.11,517.87,167.26,519,167.4Z"/><path class="cls-2" d="M530.2,211.13c-1-1.21-1.94-3.51-3.14-4.52C528.05,209.45,528.24,211,530.2,211.13Z"/><path class="cls-2" d="M538.26,238.86c.22,2.95.53,5.62,1.29,7.17C539.25,243.84,538.64,238.2,538.26,238.86Z"/><path class="cls-2" d="M532.61,225.88c.86-.76.59-3.73,0-5.32-.61.64-.67,3-1.72,1.69a27.82,27.82,0,0,0,2,7.52c.79-2.11,1.54,1.63,1.75.36a5.83,5.83,0,0,1-.67-3.86C533.07,225.61,533.06,226.79,532.61,225.88Z"/><path class="cls-2" d="M542.21,188.14c-1.54-4.74-2.15,2.52-.62,3.82C541.72,190.59,540.29,187.54,542.21,188.14Z"/><path class="cls-2" d="M537.27,255.52c-.15-1.63-.77-2-.24-3.27C535.66,251.72,536,256.25,537.27,255.52Z"/><path class="cls-2" d="M536.51,223.12c-.54-1.47-.08-3.81-1.48-4.4,1,2.89.67,4.45,1.94,7C538.25,222.1,537.37,225.48,536.51,223.12Z"/><path class="cls-2" d="M391.28,32c2.31,1.15,3.63,2.93,5.27,2.49-.94-1-3.5-2.73-1.55-2.74-1.67,0-5.69-3.91-5.21-2.71C391,30,394.23,32.67,391.28,32Z"/><path class="cls-2" d="M117.54,54.23c-3.22,1,.49-2.34-1.62-2.11.59,1-1.41,2.49-1.33,3.58C116.22,53.8,116.13,55.65,117.54,54.23Z"/><path class="cls-2" d="M357.12,17.87c-1-.95-1.22-2.69-1.38-2.2C354,15.6,355.48,17.51,357.12,17.87Z"/><path class="cls-2" d="M114.46,64.72c3.18-3,3.14-6.14,8.2-8a1.21,1.21,0,0,1-.26-1.42c-2.72,2.43-5.47,3.51-7.42,6,1-.45.06,2-1.64,3C113.66,64.59,113.85,65.14,114.46,64.72Z"/><path class="cls-2" d="M508.78,150.53c-.79-1.3-1.59-2.34-2.38-2.42C507.21,149.63,508,151.87,508.78,150.53Z"/><path class="cls-2" d="M100.2,75.24c-1.9,3.3-3.73,2.81-5.66,5.94C95.74,81.06,101.49,76.42,100.2,75.24Z"/><path class="cls-2" d="M256.51,511.37a1.38,1.38,0,0,0,1.65,1c-.1-.44-.19-.89-.29-1.33Z"/><path class="cls-2" d="M473.51,98.32c-.48-.64-.9-1.26-.33-1.45-2-2-3.67-4.23-4.52-3.78C470.84,94.41,472.07,97.52,473.51,98.32Z"/><path class="cls-2" d="M460.56,77.14c.89.71.85,1.56,1.4,1.4-1.16-2.08,2.09,1.46,2.55,1.17-.78-1.35-3.94-4.3-4-3.53C462.54,78.12,461.55,77.44,460.56,77.14Z"/><path class="cls-2" d="M366.9,19.41a5.32,5.32,0,0,1,1.59,1.35c-.54.34-2.87-1.13-3.27-.51.89,1,1.67.24,3.64,1.39C370,20.92,368.33,18.85,366.9,19.41Z"/><path class="cls-2" d="M411.65,4l3.46-.38c-3-1.28-5.86-2.4-6.83-1.06C409.3,2.93,411.44,4.74,411.65,4Z"/><path class="cls-2" d="M74.38,92.14c1.26-1.4.25-2.37-.43-2.06l-1.27,1.49C73.13,92.28,74,91.12,74.38,92.14Z"/><path class="cls-2" d="M477.38,343.42c.53-.36.56-.71.11-.9-.13-.06-.33,0-.49.06s-.2.39-.14.47S477.31,343.46,477.38,343.42Z"/><path class="cls-2" d="M479.43,321.59c0,1.26-.06,4.07-1.47,3.45-.61-2,2-5.14.2-5.36-.43,3.38-.8,5.6-2.37,8.06,2.16-1.8.89,1.72,2.73.18-.13,1.1-1.64,3.37-.32,3.21a16.15,16.15,0,0,1,1.61-4C477.07,326.65,481.73,322.82,479.43,321.59Z"/><path class="cls-2" d="M474.47,338.34c.5,1,.24,1.25,1.42,1,0-1.39,1.51-2.24.83-2.54C475.85,339.05,475.29,338,474.47,338.34Z"/><path class="cls-2" d="M503.69,278.89c0-.06-.37-.22-.58-.34-.12.15-.42.43-.38.49C503.13,279.69,503.5,279.63,503.69,278.89Z"/><path class="cls-2" d="M524,318.73c-.5,1.47-.81,3.54-1.68,6.15-.52,0-1.11-.31-1.25,1,2.15,1.08,2.1-5.77,3.78-6.38l-.66-.12C524.25,319,524.29,318.66,524,318.73Z"/><path class="cls-2" d="M234.4,504.47s.47,0,.49-.08a7.32,7.32,0,0,0,.17-1.06C234.57,503.52,234.06,503.69,234.4,504.47Z"/><path class="cls-2" d="M475.63,320.17a1,1,0,0,0-.54.27c-1.77,2.07-1.61,4.66-2.22,7,.78.31,1.24.66,1.65.62s1.13-.47,1.14-.73c0-.65.06-1.29.1-1.93a4,4,0,0,0,.71-1.27.48.48,0,0,0-.64.15,15.21,15.21,0,0,1,.56-2.89C476.48,321.08,475.92,320.56,475.63,320.17Z"/><path class="cls-2" d="M505.89,307.41c.2.13.4.37.58.36s.27-.33.41-.51l-.57-.43Z"/><path class="cls-2" d="M331.79,204.28c-3.86-4.23-7.34-8.77-11.59-12.48a56.73,56.73,0,0,1-8.86-9.85c-7.32-10.18-14.28-20.62-21.46-30.89-1.18-1.69-2-3.79-4.35-4.71-8.54,7.4-14.65,16.7-22.08,25.37,3,1.25,5.31,2.64,8.15,1.23a2.74,2.74,0,0,1,2.17.45c3.22,2.1,6.75,3.93,9.46,6.55,4.72,4.57,10.17,8.05,15.64,11.59,3.92,2.53,6.52,6.32,8.65,10.35,1.35,2.54,2.44,5.21,3.75,8,3.62-.49,7.43-.36,10.66-1.62S329.43,208,331.79,204.28Z"/><path class="cls-2" d="M507.59,298.59a6.17,6.17,0,0,0,.12-1.51,1.31,1.31,0,0,0,.06-.58c-.1-.43-.55-.79-.84-1.17a3.5,3.5,0,0,0-.3,1.4,1.22,1.22,0,0,0,.2.35c-.27.81-.47,1.87,0,2C507,298.65,507.22,298.45,507.59,298.59Z"/><path class="cls-2" d="M314.15,238.4c-7.33.55-14.42,2.47-21.49,4.35a12.37,12.37,0,0,0-1.73.82c-3.16,1.4-6.53,2.46-9.44,4.25-4.62,2.84-10.41,2.73-14.83,5.94-.66.48-1.77.32-2.61.6-3,1-6.31,1.61-8.89,3.26-4.9,3.12-9.7,6.47-13.39,11.06C240.67,270,240,274,241,275.6c.77,1.25,3.23,2,5.31,1.32q4.75-1.53,9.4-3.37c9.41-3.76,18.81-7.44,28.84-9.56,6.48-1.37,12.41-1,18.22,2,1.6.81,3.14,1.73,4.75,2.5,1.19.58,2.46,1,3.85,1.56,4.38-10.49,10.54-19.74,12.88-31C320.44,238.77,317.26,238.17,314.15,238.4Z"/><path class="cls-2" d="M508.65,298.1c-.13.45-.36.66-.73.52-.23,1.78-.67,3.83.56,3.62C508.28,300.23,509,299.16,508.65,298.1Z"/><path class="cls-2" d="M506.9,282.43c0-.09-.07-.2-.13-.29a2.41,2.41,0,0,1-.08.25,4.18,4.18,0,0,0-.89.1c0-1,0-2.12-.64-2.14,0,.73,0,1.51,0,2.28-.66.26-1.56.78-1.2,1.12a5.94,5.94,0,0,1,1.15,1.51c0,.55,0,1.09,0,1.65-.23,2.27-.51,4.61-.81,6.89-.62,4.58-1.22,9-1.68,12.41a2.87,2.87,0,0,1-.84-1.28c.13-1.7,1.66-2.66.43-3.43a14.43,14.43,0,0,1-1.16,3.91c.93.69.91,2.28.68,3.91s-.77,3.31-.44,4.27a.9.9,0,0,0-1.64-.28c-.24,2.37-1.22,5.55-2.57,7.08-.43-.22-.34-1-.73-1.3-.8,3.56.1,4.8.2,8.23.33-2.38,1.43-5.17,1.6-2.58.64-1.4,1.34-3.19.56-4,1.14-1.92,3.52-2.64,3.53-5.2a1.28,1.28,0,0,1,1.19.8c.16-1.91-.63-2.74-.79-4.27.36-1.07,1.37-.24,1.46-2.12-.75-.67-.69-3.72-.25-6.68a.92.92,0,0,0,.58.22,3.54,3.54,0,0,0,1.19-.69c-.32-.19-.67-.57-1-.52a1.74,1.74,0,0,0-.7.31c.57-3.3,1.58-6.24,2.45-5.29a36.37,36.37,0,0,1,.59-5.05,0,0,0,0,0,0,0c.06.2.38.33.59.47.39.26.82,0,.84-.66,0-1.48-.76-3,.32-4.41-1.23-1.09-1.06-2.29-.67-3.78C508.31,283.05,507.77,282.55,506.9,282.43Z"/><path class="cls-2" d="M254.58,191.9a1.85,1.85,0,0,1-.74-1.28c.24-2.36-1.74-3.08-2.79-4.16-4.9,3.75-9.41,7.67-14.41,10.84a47.54,47.54,0,0,0-8.17,6.79c-.7.7-1.48,1.34-2.23,2-3.72,3.22-8,5.79-11.08,9.77a29.94,29.94,0,0,1-5.76,5.35c-4.06,3.06-8.32,5.89-12.43,8.9-.74.54-1.18,1.48-2.25,2.89,24.65-2.11,47.79-8.09,71.71-12.4a37.06,37.06,0,0,0-1.06-4.09c-1.9-4.92-4.16-9.74-5.76-14.76C258.46,198.15,257.73,194.5,254.58,191.9Z"/><path class="cls-2" d="M258.16,512.4l0,.2h0l.27,0-.14-.19Z"/><path class="cls-2" d="M516.37,311.2c1.34-.76-.16,2.08.64,2a1.79,1.79,0,0,1,.91-1.11c-.35-2.72-.19-3.66-.58-5.67C516.74,309.09,517.05,309.43,516.37,311.2Z"/><path class="cls-2" d="M518.21,296.59c0,3.75-.53,5.59-.46,9.22.44-4,1,.5,1.15,1.39-.35-3.15-.64-5.86.82-9.24a1.24,1.24,0,0,0-1.06.52C518.8,297.43,518.59,296.89,518.21,296.59Z"/><path class="cls-2" d="M509.36,186.45l.26-.09-1.38-2.79Z"/><path class="cls-2" d="M531.62,272a55.62,55.62,0,0,0,.43-7.07c-.49-.09-1.23.27-1.33-.59.54-5.37-.07-10.35-.5-15.16s-.93-9.46-1.1-14.2c-.61-.15-.69,1.06-1,.16-.07-3.59-.11-6.57-1.84-8.7a1.21,1.21,0,0,1,1.09.45c-1-2.46-.92-5.88-.83-8.28,1.61,1.44,1.09,4.91,3.32,5.18-1-4.36-4-5.67-4.4-10.82-.9-.67-.9,1.9-1.29.32,0-2-.17-2.5-1.12-3.64,1.11-.24.71-2.11.76-3.48-2.54-4.55-1.72-9.89-5-13.78-.51-2.49-1.12-5.25-2-8.07s-2.09-5.64-3.25-8.41a109.68,109.68,0,0,0-7-14.16c.57-.89-1.25-3.34.09-3.6-2.73-2.7-1.85-5.45-4.37-7.08.32.71.6,1.39,0,1.45a25.72,25.72,0,0,1-2.36-3.79c.43-.32,1.05-.49.28-1.62-2.82-.76-3.36-6.3-4.52-9.17-.65.17-.16,1.1-.24,1.64-1.29-2.11-4.09-5.78-2.91-7.21,1.19,1.18,0,2.65,1.44,2.87-.4-.81.23-1,.15-1.62-5.35-4.84-10.12-13.15-12.44-17-.92-1.38-2.32-1.31-2.75-1.9-1.17-1.6-1-3.76-3.57-6.1.48.43-.54-.72-1.6-2-.41-.5-5.14-5.2-5.15-7.36.45-.77,3.52,3.55,2.77,1.81-1.55-1.71-2.33-2-3.26-4-.47.77-1.26.36-2-.41a6,6,0,0,1-1.53-2.45c1.82,1.08,3.7,3.24,5.05,3.17-2.84-2.82-9.24-6.94-6.7-8.72-.25.23-1.08-.52-.9-.93,2.42,1.31,2.2,0,4.36,1.16-3.94-2-6.24-5-8.64-7.86s-4.74-5.61-9-6.41c.3-.58,1-.08,1.36-.59-1.5-1.34-2.08-.41-3.87-2.44.52-.39-.08-1,.36-1.44-1.37-1-2.82-2.17-3.88-2.42,2.28,1.74,2.77,3.08,2.39,4.21-3-3.17-5.5-3.33-7.47-7.15,1.78,1.9,2.1.45,3.88,2.37,0-1,1.16-1.78-.75-3.23-.39.32-.58,1.12-1.32.63,1.23-.84-4.91-6.85-7.95-8.88-1.29.61.76,1.71-.1,2.38a10,10,0,0,0-3-2.51c1.57.11,1.16,0,1.67-1.26-1.55-1.45-1.36.38-2.7-.68.78-1-2.43-2.53-2.28-3.61-3-.7-3.15-1.93-2.34-2.42-2.56-.64-3.19-1.46-5.22-1.54-.54-1.17.28-.32.71-1.13a8,8,0,0,1-3.64-2.84c-1-.25-1.83,0-2.89-.22-.67-1.17-2.2-1.52-.07-1.19-6-4.17-9.85-2-12.48-4.36-1.5,2-3.63-.3-5.41-2.21-1.11.26.91,1.92-.59,1.2a9.44,9.44,0,0,0-5-3c-.05-1.19,1.36-.51,1.88-1-1.54-.1-3.17-1.52-3.68-1.3a3.05,3.05,0,0,1,1.36,1.7c-1.39-.63-2-.26-3.67-1.28l.4-.92c-5.71-.57-12.07-5.12-14.82-4.64-2-.53-.93-1.34-2-1.95a1.27,1.27,0,0,0,.24,1.19c-1.64-.06-8.05-4.73-4.81-1.8-2.84-1.1-3.3-2.63-5.29-2.47,1.4.57,1.15,1.33-.3.95,1-.17.79-.85-.92-1.36-.76.35-2.14.06-3.36-.05,1.91-.33-2.65-1.5-3.58-1.5.46.22,1.21.39,1.14.71-1.27-.27-4.75-.66-5.51-1.76.5-.33,2.37.7,2.63.14-1.92-1.23-2.86-.44-5.08-.9-.45-2.3-6.57-.07-6.64-2.66,2.37,1.22,4.62.94,6.57.88s3.59.09,4.71,1.84c.61-1.78,2.39,0,5.3.3-.42-1.24,1.19-.46,1.61-.87-2.79-1.19-1.88-.22-2.67-.17-.48-.53-2.25-.83-1.58-1.56.74.19,1.74.62,2,.28-2.65-.57-3.84-1.38-4.11-2.35a20.39,20.39,0,0,1-5-1.25,62.63,62.63,0,0,0-7.8-1.76c-1.32.3.65,1.21-1.56,1-8-3.31-16.08-2.3-22.5-3.65-1.44.83.95,2.05-2.16,1.73-1.54-.67-1-1.28-.42-2.06-6.06.56-9.69-1.89-16.15-2.22-2.8,2.64-11.64-.33-15.62,1.85,3-.41,6.87-.33,8.38.87-2.45,1.12-10,1.34-9-.89-3.5,1.12-6.6-1.46-7.71.56-.81-2.28-8.17-1.72-12.3-.69.61-.15-1-.31-2.62-.14-4.25.45-9,.79-13.68,1.34A75.3,75.3,0,0,0,229.56,9a2.93,2.93,0,0,1-.09-1.21c-3.84,1.17-7.64,2.3-11.41,3.44a.27.27,0,0,0,0-.33,26.73,26.73,0,0,1-4.25,1.63L210,13.68a26.1,26.1,0,0,0-6.44.1c1.23-.35.53-1.1,2.29-1.33,2.85-.15,6.23-1.12,7.94-2.8,1.36-.08,1.46.25.87.85C221.8,8,227.5,7.83,233.93,4.92c-1.43,1.51,6.43-.26,4.43-1.07a138.29,138.29,0,0,0,15.63-1c2.76-.34,5.49-.77,8-1.27,1.26-.26,2.48-.53,3.64-.83S267.9.27,268.89,0c-3.22.29-9.14-.31-11.76,1.21,1.39-1.56-2.9,0-3.23.58l-.1-1c-14.16.79-28.67,3.84-42.66,6.84L191,13.47l-4.82,1.44-4.62,1.73L172.7,20c-2,2.11-11,3.86-12.37,7.39-3.52,1-4.78,1.29-7.69,3.56.44-2.33-3.63,1.69-3.69,0-2.34,2-6.2,2.28-6.78,4,3.73-1.6,5.59-3.65,7.42-2.8-3.57,1.43-6.73,4.12-9.73,4-2.49,1.72-6.5,6-9.26,6.13.57,1.46-3.12,1.66-4,3.41.11.61,1.29.17.57.82-1.73,2-5.17,2.53-6.49,4.31.68-.41,1.34-.77,1.47-.18-1.5,1.3-1.92.6-3.42,1.9.48,1,2.65-1.13,3.82-1.37.5-1.59,6.66-5.76,7.89-5.61-1.53,1.69-1.69,2.74-4.13,3.11.13,1,1.46-.16,1.84.38,1.79-1.18,1.22-2.1,3.2-3.29.15,1-.83,2.06-1,3,2-1.18.71-2,2.48-3.2.86.18-1,2,.74,1.11a1.56,1.56,0,0,1,.57-.74,2.58,2.58,0,0,0,.29.54l.89,1a.76.76,0,0,1-.67-.37c-1.38,1.36-1.77,1.25-3.39,1.81.48.67,3-.52,4.25-1.22.64.75,1.27,1.49,1.87,2.27,0,.06,0,.25-.16.45a14.35,14.35,0,0,0-1.56.94A2.37,2.37,0,0,0,134,52.65c-1.57,1.12-3.1,2.07-4.6,1.59-.55,2.26-7.87,6.34-10,6.56.32.74-.49,1.86-1.57,2.88a9.89,9.89,0,0,1-1.36.23c-.64.05-.73.59-.43,1.24-1,.7-1.94,1.11-2.14.87-.66,1.14-1.39,2.3-2.17,3.46-.69.49-1.39,1-2.07,1.47a1.62,1.62,0,0,0,0-.22c-2.3,1.75-4.37,3.53-6.38,5.33l-.11.11A109.91,109.91,0,0,0,90.35,89.32c-1.85,1.75-3.82,3.55-6,5.49.46.35.33.93-.06,1.6-2.4.81-4.31,3.92-6,6.48a17.32,17.32,0,0,0-4.32,3.44,1.89,1.89,0,0,1-.43-.21c-.78.94-.84,1.29-.68,1.48-.34.41-.66.82-1,1.24-1.38,1.76-2.68,3.64-4,5.44a39.41,39.41,0,0,1-4,5.11c-4.64,4.68-9.4,9.36-13.79,14.44-4.18,5.18-7.92,10.82-9.59,17.54-.7,1.39,1,1.09.48,2.35-2.49,4.25-4.43,9.61-6.54,15-1.78,5.56-3.8,11.17-5.44,16.45-2.57,7.41-6.47,14.26-7.52,22.18a53,53,0,0,0-.14,12.41,27.73,27.73,0,0,0,3.35,10c-1.24,7,3.72,15.29.62,22,.5,1.38,2,1.18,1.76,3.7,0,1.77-.78,1.75-1.12,2.65,1.86,0,1.44-.94,3,.12-.7-5-.29-7.37-1.75-11.75.23-1.2.83-1.64.85-3.52-2.09-10-3.85-22.07-2.47-35.53,1.51-13,7.92-24.92,8.43-34.29.95-1.92,2.31-.42,3.33-1.66.23-5.13,4.18-8.06,6-13.52,1.42-3.78.83-7.93,2.83-12.14a65.6,65.6,0,0,1,7-10.46,119,119,0,0,0,8.31-10.84c.21-.07.41-.17.62-.26-1.05,2.08-2.17,3.64-3.68,6.9-.76-.24.69-1.68.19-2.06A66.5,66.5,0,0,0,55,135.53a16.93,16.93,0,0,1-4,5c1.49.54-.62,3.4.25,4.34,1.72-2.89,3.86-6.57,6.26-7.09-.75,2.62-2.94,2.71-2.7,4.11a15.48,15.48,0,0,0,4.5-6.47,34,34,0,0,1,4.16-7.63,1.17,1.17,0,0,1,.49,1c1.85-1.65,2.71-4.34,3.59-6.42.53-.52,1-1.11,1.49-1.66a2.81,2.81,0,0,0-.18,1.09c.73-.59,1.46-1.24,2.18-1.74a1.49,1.49,0,0,0-.09.92c.33-.51.67-1,1-1.43a2.41,2.41,0,0,1,1.19-.26,34.26,34.26,0,0,0-1.19,9.38,9.75,9.75,0,0,1-1.57,1.34l.84.55a6.08,6.08,0,0,1,.71-1.12c0,.43,0,.85,0,1.28q-.21.33-.48.69c-.43-.28-1.83.74-.66,1,.41-.66.79-.86,1.14-.72h0a14.14,14.14,0,0,1-1,3.22c-.65,1-1.92,1.62-2.74,2.56-1.1,1.26-.43,4.12,1.2,4.43a13.11,13.11,0,0,1,1.53.41c-.26,1-.59,2-1,3a8.13,8.13,0,0,0-4.77,1.71c-.23.16-.06.93,0,1.4a.73.73,0,0,0,.52.47l.28,0c-.27,1.47-.74,3-2.27,3.72a1.36,1.36,0,0,0,1.46.11,20,20,0,0,1,1.7-3.78.32.32,0,0,0,.26-.11,4.52,4.52,0,0,1,1.65-1.48,57.15,57.15,0,0,0-4.68,9.2c-.24.66-.44,1.3-.64,1.93l-.27-.18-.47.6a4,4,0,0,0,.5.31,46.32,46.32,0,0,0-1.36,5.78c-.49.76-1,1.46-1.39,2.05a23.22,23.22,0,0,0-.8,2.27A151.13,151.13,0,0,0,43.44,212.8a161.5,161.5,0,0,0-2.66,50.11,42.47,42.47,0,0,0-1.17,10.43,52.42,52.42,0,0,0,1.28,11.54c-3,5.3-1.56,14.05.79,22.37.58,2.08,1.17,4.15,1.74,6.16s1.24,3.92,1.73,5.76c1,3.67,1.56,6.93,1.29,9.49,5.93,2.89,7.75,16.71,7.15,21.86,1.92.18,3.17,2,4,4.24a38,38,0,0,1,1.78,7.16c-.66.31-2.9-2.65-1.37.61.55,1.59,1.3,1.26,1.95,1.92-.4,1.87-.25,4.05-1.34,5.36,1.11,3,2.41,2.93,3.53,5.94-1.27-.31-2.57-.35-3.78-1.95-2.7-3.89-1.56-5.17-2-7.68-1.09.62-.74,2.17-2.17,0,2.36-2.34-3-4.81-1.33-8,.72,1.45,1.47,2.52,2.32,2.77-1.83-2.88-3.75-6.46-5.3-9,.35.85.57,2.14-.16,1a118.21,118.21,0,0,0,16.49,41.22C73.9,406.49,83.35,417.61,94,428.51c.22,2,2.2,4.63,4,7.15,7.17,5.41,11.83,9.74,17.11,7.35-7.77-6.87-14.63-11.74-25.28-24.68-1.27-3.46-1.44-6.72.38-9.07,9.45,9,16.52,21.65,27,28.91,1.5,1,2.52,1,3.82,2,8.1,6.48,11.51,10.57,17,15.19,10.56,8.95,24,15.47,36.07,22,2.68,1.39,4.5,4.82,8.33,4.22-3.2-2.06-6.57-4.15-9.83-5.81a56.48,56.48,0,0,0-8.9-4.08c-3.1-2.43-7.28-5.72-11.81-8.72-4.35-3.28-9-6.35-12.71-9.2-1.56-1.76-3.12-3.38-4.69-4.9s-3-3.07-4.57-4.49L120.51,436c-6.31-5.57-12.91-11.69-19.42-20.63,1.28-2.59-.8-4.25-2.87-7.24,2.45-1.67,1.71-4.52-.44-7.88-2-1.32-.77,2.35-2.48.87-.69-2.38-1.22-4.67.31-6.22,1.22,1.73,2.89,3.5,3,4.74,1.45-2-1.69-5.69.68-7.38a113.19,113.19,0,0,0,8,8.08c2.85,2.41,5.63,4.76,8.43,7a136.36,136.36,0,0,1,16.18,14.44c.57,2.32,0,4.49,1.09,6.93,2.57-.53-.84-5.1.15-7.17a55.82,55.82,0,0,1,6.91,3.87c.73.42,1.45.81,2.17,1.19.06.11.13.22.19.34,1.09,2.26,2.53,4.81,5.27,5.31a12.06,12.06,0,0,1,1.32.36,62.06,62.06,0,0,0,5.24,4c.06.09.12.15.17.24a6.56,6.56,0,0,1,.7.36c.35.22.69.47,1,.69,1.93,1.58,2.55,4,3.07,6.5a1.61,1.61,0,0,0,1.67,1.28,3.62,3.62,0,0,1,1.47.41c1,.59,2.66.93,1.42,2.72a3.68,3.68,0,0,0,3,1.93c2.24.37,4,1.18,4.38,3.71a2,2,0,0,0,.78,1.26c2.24,1.29,4,3.57,6.74,3.78,1.81.13,1.74,1.56,2.21,2.66.47.09,1.08.1,1.24.37,2,3.52,5.06,5.81,8.4,7.87a14.57,14.57,0,0,1,4.76,3.91c1.72,2.46,3.45,5.44,7.48,4,.52-.18,1.43.55,2.09,1,1.11.7,2.18,1.45,3.23,2.25.51.39,1.63.62.85,1.65-.52.69-.6,2.14-2.13,1.39a2.51,2.51,0,0,0-1.49-.25,4.07,4.07,0,0,0-1.24.78c.19.18.37.37.57.54a6.06,6.06,0,0,0,5.58,1.47c1-.3,1.63-.75,2.57-.13,1.52,1,3.17,1.81,3.61,3.87.53,2.44,1.51.35,2.37.36,1.71,0,4,.47,5,1.63a8.38,8.38,0,0,0,3.44,2.45,24.6,24.6,0,0,1-4.61-.26c-9.38-1.17-20.38-6.67-29.66-7.84-2.12-3.5-2.72-.18-6.81-3.65-1,.75-3,1.84-2.07,2.94,0,.59.61,1.06,1.24,1.55,5.25.75,8.68,3.06,13.5,3.21,11.3,7,23.51,9.67,36.27,10.73a3.12,3.12,0,0,1,.25,1,1.44,1.44,0,0,0,1-.91l.82.07c1.22.07,2.45.12,3.68.17a15.7,15.7,0,0,1,1.58,1.76,3.76,3.76,0,0,0,4,1.42c5.16-1.07,5.19-1,8.95,3.07a7.1,7.1,0,0,1,.75,1.1,1.67,1.67,0,0,1,1.9,1.15c1.2-.38,1.91-2.56,3.72-.83a9.48,9.48,0,0,0,3.36,2c.51.18,1,.35,1.47.54a1.63,1.63,0,0,0-.46.2l1.11.09a5.41,5.41,0,0,1,1.7,1.33c1.11,1.28,2.2-.4,3.11-1.24,3.42,1.73,7.1-1.67,10.51.52,2-.43,4.11-1.24,6.14-1.18,2.29.07,4.52.73,6.82-.18,1.69-.67,3,0,3.87,1.63a1.46,1.46,0,0,0,1.37.24c1.39-1.44,3.1-1.09,4.77-1,2-2.48,5-2.68,7.75-3.2s5.45-2,8.38-.47c.56.29,1.52-.37,1.66-1.24.16-1,.18-2.08,1.53-2.34a28.87,28.87,0,0,0,3.05-.75c4.17-1.23,8.72-1.35,12.27-4.39.45-.38,1.48-.18,2.21-.09s1.3.83,1.95-.14c1-1.47,2.66-1.52,4.19-1.75,3.26-.48,4.72-.85,5.85-1.87,1.73-1.53,3.67-2.84,4.73-5a4.18,4.18,0,0,1,2.06-2.19,14.93,14.93,0,0,0,6.1-3.14c4.1-.43,6.93-3.11,9.89-5.56.38-.31,1.06-.89,1-1-1.44-2.76,1.53-3.92,2.08-5.92s1-4.09,1.46-6.16c.76-.54,1.56-1.07,2.36-1.61.29.06.48-.07.58-.39.78-.52,1.6-1,2.43-1.52,1.35.84,2.54,1.33,4.25-.26a24.21,24.21,0,0,1,5.9-3.54l-.82.21c-1.84.44-3.7.88-5.56,1.24-7.15,1.4-14.41.27-21.62.71-1.62.1-3.39-1.47-5-2.38-.76-.42-1.29-1.43-2.07-1.62-6.68-1.63-11.77-5.89-17.25-9.55-4-2.67-8.13-5.16-12.14-7.83-1.59-1.06-3-2.38-4.5-3.54-5.34-4.12-10.6-8.36-16.09-12.31-5.15-3.7-10.65-6.95-15.82-10.63-8.85-6.28-17.52-12.79-24.26-21.36-1-1.27-2.25-2.35-3.8-3.94-1.41,3.16-2.68,5.82-3.78,8.55-2.24,5.57-4.23,11.24-6.63,16.74-1.15,2.63-3,5-4.54,7.44-.88,1.43-1.76,2.88-2.61,4.28l2.42,2.36c-.58,2.26-1.13,4.24-1.52,6.25,0,.22.92.62,1.71,1.13-4.23,1.93-4.93,5.8-5.83,9.57-.81,3.35-2.52,6-6,7.3-.47.18-1.15.27-1.35.62-1.85,3.1-5,3.69-8.21,4.22a13.32,13.32,0,0,0-4.33,1.6,3.37,3.37,0,0,1-3.62.12c-3.71-2-7.77-3.64-10.66-6.76a117.11,117.11,0,0,1-8.15-10c-4.88-6.59-9.57-13.3-14.38-19.93-1.26-1.72-2.78-3.27-4-5-1-1.44-.84-2.95-.17-4.66,1.38-3.47,2.66-7,1.16-10.89a5.22,5.22,0,0,1,1-5.36,5.24,5.24,0,0,0,1.22-3.74,290,290,0,0,1,3.56-37.9c1-6.57,2.76-13,4.06-19.56,2.48-12.48,4.55-25,3.31-37.78-.53-5.5-.81-11-1.18-16.53a7.1,7.1,0,0,0-3.39-5.91c-3-2-5.65-4.37-8.59-6.69l1.59-2.2c-.5-.79-1.35-1.55-1.45-2.4-.27-2.48-.4-5,2.47-6.49a24.2,24.2,0,0,0,3.58-2.8,53.14,53.14,0,0,0-4.9-5.35c-1.49-1.24-2.23-2.24-1.3-4.13.21-.43-.52-1.3-.81-2-.3-1.34,4.09-1.18.93-3.55-1.09,1.31-2.1,2.7-3.3,3.91a35.71,35.71,0,0,1-3.76,3.16c-3.65,2.77-7.31,5.49-11.72,7.14-3.46,1.3-7.63,2.15-10,4.57-3.3,3.41-7.43,3.05-11.18,4.35a100.89,100.89,0,0,1-11.08,3.19,76.4,76.4,0,0,1-9.89,1.38c-4.22.36-8.47.47-12.7.7a9.06,9.06,0,0,0-2.28.26,44.2,44.2,0,0,1-10.58,1.79c-4,.29-8,1.49-12,2.43-2.73.64-5.42,1.46-8.09,2.32a34.4,34.4,0,0,0-3.37,1.59,5,5,0,0,1-2.09.75c-4.07-.26-7.45,1.84-11.13,2.9-1.2.35-2.44.55-3.67.79-.74.15-1.51.21-2.24.39-3.1.78-6.16,1.72-9.29,2.34a5.16,5.16,0,0,1-5.37-2.22c.76-1.36,1.33-2.5,2-3.56a4.35,4.35,0,0,1,1.44-1.59c2.48-1.26,5-2.37,7.56-3.59,2-.93,3.79-2.11,5.81-2.86,2.38-.9,5-1.28,7.32-2.22,2.61-1,5-2.52,7.58-3.69,1.37-.63,2.87-1,4.27-1.54a13.13,13.13,0,0,0,2.68-1.33c2-1.36,4-2.79,5.9-4.23,4.1-3,8.12-6.15,12.31-9.06,9.09-6.34,17.83-13.08,26.38-20.11,5.35-4.4,9.87-9.46,14.84-14.15,4.8-4.53,9.84-8.85,14.3-13.69,7-7.57,13.54-15.5,20.26-23.29a315.21,315.21,0,0,0,20.06-25.79q13.54-19.5,27-39.09c2.91-4.28,5.4-8.82,8.24-13.14,2.63-4,5.58-7.83,8.18-11.86,1.79-2.75,3.15-5.74,2.45-9.16a9.27,9.27,0,0,0-.89-2.74c-1.66-2.91-4.11-5.52-2.64-9.34.26-.68-.7-1.8-1.1-2.71s-.78-1.73-1.37-3.07c5,.74,7.76-1.52,9.87-5a3,3,0,0,1,1.73-1.39c2.79-.28,5.31-2,8.47-.34s6.59.82,9.77-.49a4,4,0,0,1,3.66,0c3.71,1.88,7.71,3.2,10.75,6.27,4.9,4.94,10,9.7,15,14.51A33.64,33.64,0,0,0,299.22,76a26.67,26.67,0,0,1,6.17,5.53c2.45,3.28,6,5.77,8.88,8.78a65.87,65.87,0,0,1,5.7,7.08c1.74,2.43,3,5.2,4.89,7.52,1.73,2.15,2.1,4.55,2.33,7a29.73,29.73,0,0,1-2,13.31c-.63,1.67-2.6,2.94-4.15,4.17a26.53,26.53,0,0,1-4.19,2.23c1.57,1.58,2.8,3,4.18,4.18A133.46,133.46,0,0,0,337.86,149c2.59,1.63,5.27,3.15,8,4.59,5.43,2.88,10.94,5.61,16.35,8.53q8.43,4.56,16.71,9.39c6.29,3.69,12.42,7.63,18.74,11.27,3.76,2.17,7.75,4,11.62,5.93,2.17,1.1,4.31,2.25,6.48,3.35,6.38,3.27,12.64,6.79,19.2,9.68A85.92,85.92,0,0,1,446.2,208a11.62,11.62,0,0,0,1.69.93c4,1.67,8.11,3.08,11.94,5a69.77,69.77,0,0,1,11.73,7.16c3.2,2.55,16.91,7.7,20.76,8.34a44,44,0,0,1,5.55,1.54,2.44,2.44,0,0,1,1.29.79,2.62,2.62,0,0,0,2,.73c-.24-1.76-.49-3.52-.73-5.3C498,223.35,497.55,218,497,214c.06.59-1.07-1-.94-2.1.42-4.3,3.23,2.13,3.82,5.49-.69-2.89,2.13-.55,3-.15,1.82,5.49,2.71,10.22,4.18,15,1,0,1.76.06,2,.42a17.34,17.34,0,0,1-1.74,3.64,3.7,3.7,0,0,0,0,1.43c1.72,2.24-.11,5.24.5,8.19.32,1.69,1.85,2.78,2,4.49.2,1.92-1.06,3.77-.92,5.4.08,1,.78,2.63.91,3.46,0-.08-.69-.36-.7-.54.12,1.75,1.11,2.55,1.28,4,0,.27-1,.49-1,.64-.58,2.14,1.14,4.69,1.24,7-1,1.71-1.48-2-1.67.61,1.13.14.9,2.64,1.6,3.53-1.87,1.65,0,6.64-1.8,5.86a67.73,67.73,0,0,1,.59,7.49,62,62,0,0,1-.41,7.23c.13-.67.6-.59,1.06-.5-.55,4.41-.7,5.85-.33,8.32-.34,0-.34-.52-.59-.67-.36,3.32-.53,6.45-1.06,9.18a65.74,65.74,0,0,1-1.77,7.16,7,7,0,0,1,.92,2c-1.17,1.3-.88,1.74-.32,3-.86,1.05-2.05.28-1.82,2.05,1.37-1.78.56,2.53.5,3.78-.64-.14-.77,1.48-1.56.85-.78,0,0-1.75-.57-2-.78,3.82.18,4,1.64,4.68.85-1.26,1.39-3.6,2.19-5-1.59-1.51.93-7.51,2-8.78-.16.77.46.64.4,1.3-.41,0-.9-.29-1.11.39,1.26,3.82-.7,7.28-2,11.85,1.6-1.06.73,1.35,2,1.74,1.09-4.66,2.05-9.4,3.1-13.61-1,1.74-.59-1.92-.79-2.61.72-1,2.39-4.24,2.12-5.15-.2.69-.65.56-1.11.43,2.09-2.22,1.85-6,2.77-9.37-.66,3.75.36,2.11.36,4.95.79-2.58,1.41-4,.45-6.08l1,.11c-.19-2.91.52-6.51,1.23-10.32.34-1.91.73-3.87.93-5.82a34,34,0,0,0-.13-5.73c.4-.08,1,.13,1-.59-1.07-6.4,1.4-15.82-.08-19,1.28-.32,1.8,2.71,1,4.24,2.32-.5.61-4,.21-5.54,0,.1.65-.14.67,0-.53-2.41-2.08-3.4-2.43-6-.44-3.28,1.22-4.38.32-8.64-1.44,1.46-.47-4.48-1.52-6,.21,3.28-.34,1.5-.68-1.12s-.87-6,.26-6.21c.24,2,1.12,2.15,1.6,3.45-.69-3.29,0-1.81,1.23-2.69-.82-2.62,0-3.11-.2-5-1,.48-.45,2.9-1,3.93a4.61,4.61,0,0,0-.65-1.75c.16-1.47,1.63-2.72,0-3.75a1.33,1.33,0,0,0,1.2-.86c1.26,4.82,2.15,8.13,2.77,11.39a63.52,63.52,0,0,1,.2,11.29,34.13,34.13,0,0,1,.68,8.55,34.51,34.51,0,0,0,1,8.77c-.63.08-.25,2.06-1,1.89.8,7.76-2.64,15.93-.74,22.34.3-1.74.05-4.25,1-4.3,0,1.93,0,10.72-2.14,8.57a19.87,19.87,0,0,1-.24,4.95c1.28,1.09.43-3.18,1.36-3-.17,2.81-.31,9.15-2.36,11a113,113,0,0,1-2.73,14.86,52.2,52.2,0,0,1-4,11.56c1.57.78-1,1-1.24,2.24-.06,1.6,1.75-.15,1.43,1-.19.6,0,.78-.05,1.27-.44,2.37-1.45,1.89-2.09,3.28.67,1-.56,3.79-1.25,6.08-2.54-.29-2.42,4.42-3.29,6.74-1.61,4.8-4.5,10-6.95,15s-4.76,9.83-6.66,13.33c3.77-5.13,3.64-7.5,7.21-11.61a53.3,53.3,0,0,1,4.56-11.18,87.57,87.57,0,0,0,4.61-11.77c.77.33,1.29-.63,2-.7.25.84-.24,2.39,0,3.26,1.45-2.1,1.53-9,4.66-12.33-.92-.61.23-2.38.65-3.72-1.72-2.52.47-11.57,1.67-15,.59.25-1.17,5.54-.15,3.78.41-1.82.79-3.72,1.79-3.48,0,1.11-1.19,3.51-.48,3.74.92-1.87,1.17-6,3-4.57.8-2.54-1.43.62-.92-2.07.28-.09.49-.45.59-1.18,1.67-.54,1.35,1.39,1.9,2.24,1.47-2.64.15-3-.33-3.26,1.28-1.79.91,1.83,2,.31a25,25,0,0,0,1.71-6.85,1.74,1.74,0,0,1-.83,1.18c.35-1.1-.62-2.75.41-3.17,0,.76-.29,1.8.09,1.95,1.37-3.43,1.27-9.3,3.07-11.28-.26-1.59-1.14,1.06-1.26-.74,0-3.68,1.54-3.21,2-5.65-.44-.37-1.79.65-1.59-.73.47-2.23-.26-6.16,1.31-5.7.23.69.13,4.9.56,3.24-.51-3.64.29-6.14-1.09-7.73.47-2.57,1.78.49,2-1.9-.18-.9-1.28-.11-1.3-1.3C531.5,275.64,533,268.84,531.62,272ZM344.09,11.26c.7.69,2.63,1.16,4.29,1.69-.19.54.23,1,1,1.35-.28.68-1.74.2-3.27-.33,1.25-.32-.3-.78,1-1.09C345.91,12.36,343.17,12.14,344.09,11.26Zm-3.32-.17c-1.94.54-2.54-.3-4.46-1C338.24,9.5,338.85,10.34,340.77,11.09Zm-285.94,128c-.78-1,.73-2.07,1.52-2.69C56.94,137,55.18,138.87,54.83,139.11Zm41,211c.1.49.29,1.19.64,1.36,2.58,1.22,1.38,4.4,3.19,6,1.27,1.12,1,2,.34,2.81a53.36,53.36,0,0,1-3.47-6.87,27.85,27.85,0,0,1-1.62-4.85A2.32,2.32,0,0,1,95.81,350.07ZM92.13,336c1.1,1.06.8,2-.41,2.75a9.76,9.76,0,0,0,.76,1.2c1.49,1.78,1.63,2.52.49,3.91,0,.05-.1.09-.14.14a18.16,18.16,0,0,1-2-5.07l.77-.2a1.28,1.28,0,0,0-1.07-1c-.23-1-.43-2.09-.65-3.17A5,5,0,0,1,92.13,336Zm-3.49-3.61c0,.15.07.3.11.45a5,5,0,0,0,.42,1.77,7.73,7.73,0,0,1-1.73-4.13A3.32,3.32,0,0,1,88.64,332.41Zm-1.26-5.8a2.6,2.6,0,0,1-.06,1.05Q87.34,327.14,87.38,326.61Zm-16-186.94a.37.37,0,0,1-.18-.51.82.82,0,0,1,.32-.35C71.51,139.09,71.46,139.38,71.41,139.67Zm-.18-21.53c.7-.91,1.41-1.82,2.08-2.79l.69-.91a1.18,1.18,0,0,1,.31.08C74.34,115.92,72.72,117,71.23,118.14Zm30.45-20.46-.06,0a16.07,16.07,0,0,1,1.19-2.29C103,96.41,102.9,97.34,101.68,97.68Zm7.23-14.81a28.88,28.88,0,0,1,1.64-2.72A3.31,3.31,0,0,1,108.91,82.87Zm5.87-4.8a1.69,1.69,0,0,1-2.63.23.53.53,0,0,1-.14-.23,31.52,31.52,0,0,1,3.81-4C116.37,75.35,116,76.23,114.78,78.07Zm5-15a12.3,12.3,0,0,1-1.16.41L121,60.81a1.23,1.23,0,0,0,.11,1.18A15.89,15.89,0,0,0,119.81,63.05ZM143.64,38.7c0,.43-1,.89-1.82,1.35,0,0,0-.07,0-.1a1.18,1.18,0,0,0-.73-.64C142.61,38.09,142.68,39.05,143.64,38.7Zm1.12,5.63c-1,0-2.08-.68-2.82-.35s-1.25,1.62-2.45,1.64a1.08,1.08,0,0,1-.69-.3.68.68,0,0,1-.07-.58,4.59,4.59,0,0,1,2.54-2.8,1.25,1.25,0,0,0,.64-1.48,9.13,9.13,0,0,1,1.67-.6c.16.29.66.1.9.27-2.61,1.43-1.29,2.75-.39.59l1.12-.48c.21,1,.41,2.07.53,3.12C145.77,43.66,145.1,44.33,144.76,44.33Zm6.6-9c-.83,0-1.22.55-1.68,1.22a5.89,5.89,0,0,0-.72-.47,7.2,7.2,0,0,1,4.53-2.23l.63,1.17c-.92.7-2.83.37-2.84,1.48C149.23,37.24,151.59,35.62,151.36,35.36Zm.85,2a1.15,1.15,0,0,1-.66.23l.82-.33Zm.89-.58a3.81,3.81,0,0,1-.93.06c3.39-1.89,3.4-.39,3.24-2.07a2.68,2.68,0,0,1,2.66-.29C156.47,35.3,154.68,35.84,153.1,36.76Zm7.63-4.37a6.41,6.41,0,0,1-.77.79c-.91.52-1.75.93-1.7.11,1.06-.46,1.85-.81,2.51-1.14A1,1,0,0,0,160.73,32.39Zm11.88-4.07-.64.32a11.21,11.21,0,0,0-.81,1.22,5.5,5.5,0,0,1-.72.64,1.25,1.25,0,0,1-1.73-1,4.7,4.7,0,0,1,0-.65l.12-.12c1.93.4,3.79-1.22,3.41-1.75.81-.09,1.14.05,1.23.31C173.19,27.66,172.9,28,172.61,28.32Zm2.37-3a5.89,5.89,0,0,1-.64.12,4.56,4.56,0,0,1,1.08-.9A6.79,6.79,0,0,1,175,25.31Zm5.84-2.11a10.8,10.8,0,0,1-1.56-.32,3.08,3.08,0,0,1,2.36,0C181.37,23,181.08,23.1,180.82,23.2Zm2-.77a8.72,8.72,0,0,1,3.34-2C187.11,21.4,183.9,22.55,182.81,22.43Zm9.05-2.58a13.69,13.69,0,0,0-4.87,1c.31-1.95,4.79-2.18,6.51-1.59C193,19.42,192.41,19.64,191.86,19.85Zm3.19-1.18h0l.12,0Zm-3-.85c-1-.06,2.56-.89,4.81-1.77C196.53,17.62,193.62,17.94,192,17.82Zm20.32,4.84.48-.14A.71.71,0,0,1,212.34,22.66Zm8.85-.74q-1.44.43-2.88.9l-.26,0a5.6,5.6,0,0,1-2.31-1.06l3-.71A50.15,50.15,0,0,0,225,19c.17.5.16,1.14,1.42.76,0-.51-.47-1.17.34-1.42a14.11,14.11,0,0,1,4.67.2A62.81,62.81,0,0,1,221.19,21.92Zm17-4.09a18.18,18.18,0,0,1-3.89.23c.34-.31.71-.61,1.09-.9a11.88,11.88,0,0,0-2.12.7c-.1,0-.23,0-.31-.06s-.35.16-.5.25a.9.9,0,0,1-.73-.25c1.14-.35.93-1.13,2.94-1.19,2.85,1.66,1.21.53,5.1.48A2.24,2.24,0,0,0,238.19,17.83Zm.55-.09a7.51,7.51,0,0,1,2.37-.46C240.32,17.46,239.53,17.61,238.74,17.74Zm5.2-1.2a14.31,14.31,0,0,1-3.05-.29,53.42,53.42,0,0,0,5.67-.95,1.23,1.23,0,0,1,.14.31C246,15.91,245,16.23,243.94,16.54Zm5.62-.16a2.49,2.49,0,0,1-.57-.49,7.64,7.64,0,0,1,1.91,0C250.43,16.05,250,16.21,249.56,16.38ZM307.63,8.7c-2.27-.56-3.16.37-4.47-.55C302.53,6.63,308.54,7.37,307.63,8.7Zm-8.79,5c1-1.33,4,.31,6.28.42-2.21.86-3.4.64-7,.83C299.06,14.51,302.4,14.33,298.84,13.67Zm3-5.34c-1.2-1.14-4-1.68-4.27-3.17C300,5.81,302.49,6.49,301.84,8.33Zm-23.93,9.28-1.11-.14a2.52,2.52,0,0,1,.12-.39C277.88,17.26,278,17.39,277.91,17.61Zm4.19.66c-.57-.1-1.14-.21-1.72-.3,0-.07-.13-.13-.38-.16-.1-.72,2.18-.1,3.08-.25A3.06,3.06,0,0,1,282.1,18.27Zm9-1.11c-1.27-.26-1.28-.57-.57-1-4.61.6-10.29-.42-14.87.26.08-.39,1.1-.73,0-1,1,1.2-2.1.17-1.85,1,.76.29.59.59.1.85-1.47-.15-2.95-.3-4.46-.36-.67-1.1,2.71,0,2.5-.85-2.74.11-7.29-1.3-8,.07,2.77.12,3.87-.2,5.36.77l-.24,0c-2.42,0-4.89.09-7.42.32a2.12,2.12,0,0,0-.87-1.2h.07c1.1-1.22,2.83-1.39,4.64-1.41s3.71.34,5.21-.22a2.82,2.82,0,0,1,1.9,1.35c1-1.1,6.8-1.32,8.08-1.17.29,1.05-2.86.18-3.12.93,6.24-.09,8.36-1.15,11.26-1.69,1.45-.05.65,1,1.83,1.06-.94-1.58,3.79-1.42,7-1.27-.3,1.14-.16,1.7-.77,1.92a5.73,5.73,0,0,0-3.74-.08C294.81,16.21,291.18,16.37,291.12,17.16Zm3.77-.92c.63-1.09,2.48.36,4.38-.17C299.67,17.38,296.32,16.15,294.89,16.24Zm8.75,0c.14-1,4.15-.28,5,.28C307,16.94,306.25,16.21,303.64,16.25Zm10.37-2c0-1,2.42-.91,3.22-.18A5.2,5.2,0,0,1,314,14.22Zm11.9,1.67c2.25-1.54-2.79-.43-2.81-2.31,2.49.82,2.14.51,5,1.09C329,15.45,328.2,16.69,325.91,15.89Zm10.66,1.73c-.81-.81-4.26-.92-3.43-2.16-1.14,1-4-.84-6.24-1.4,4.11,1.13,7.78.53,10.75,1.76C337.86,16.91,336.35,16.52,336.57,17.62Zm41.57,13.81c1.83-.45,3.6,1.78,5.19.85,2.88,1.59,3.75,2.64,6.38,3L389,36.77C386.09,34.75,381.55,33.74,378.14,31.43Zm11.18,10.43c.26-.4.51-.79-.1-1.19.43-.87,3.47,1,4,1.81C392.47,43.1,391.12,42.81,389.32,41.86Zm9,5.72A31.25,31.25,0,0,1,393.86,44c.93-.87,2.16,1.27,4.54,2.15C398.05,46.59,398.74,47.1,398.32,47.58Zm5.86-2.8.49-.88,2.77,1.58C407.14,46.47,405.29,45.05,404.18,44.78Zm-3.89-2.19C395.9,39.52,391.88,38,390,36.16c2.56-.52,7,2.1,8.55,4.31,2.86-.2,5.53,0,9,3.54C405.65,44,402.32,40.74,400.29,42.59Zm3.49-3.76c.43-.61,2.47,1.23,3.56,1.62-1.57-.06-.21.7,1.36,1.54C407.36,42.77,405.35,39.86,403.78,38.83Zm19.57,11.53c-.12.39.83.91,1.43,1.39.16.87-2.22-.18-.74,1.11-.81.07-1.56-2.38-1.76-3.23,2,1.21,1.83.14,3.41,1.94C425.27,51.83,424.19,50.87,423.35,50.36ZM432.53,61c-.32-.54-.65-1.06-1-.82-.53-.47,0-.79-.67-1.29a1.24,1.24,0,0,0,1.12-.43c.54.51.94,1.48.13.92C432.25,59.88,433.06,60.56,432.53,61Zm.8,1.07c-.34-1.16-.22-3.13,1.89-1.46C434.76,61.87,434.81,62,433.33,62ZM447.9,80.47c.76,1,1.85,2,1.12,2.53l-1.78-1.78Zm-4-2.16A9.31,9.31,0,0,1,446.57,81c-.62.59-2-.87-3.29-2Zm1.75,5.82c-3-2.75-6.62-5.74-9.13-7.73,2.31.9,5.54,3.33,8.66,5.85,2.94,2.71,5.74,5.52,7.55,6.86C451.38,89.2,448.67,86.93,445.68,84.13Zm7.16-3.43c.35-.31.71-.62.22-1.2.34-.19.58.33.45.46,2.61.45-.25,1,1.36,2.31C454.43,82.46,453.55,81.33,452.84,80.7Zm3.86,12.44c.91-.73,2.85,2,4.21,2.9C459.23,96.5,458.56,94.11,456.7,93.14Zm52.68,225.49c-1.73.27.15-3-.35-3.1C510,313.9,509.94,317.06,509.38,318.63Zm.75-24.55c-.91-.08-.47-2.83.07-3.55C510.92,290.65,510.06,293,510.13,294.08ZM518,247.17c.8.39.63,3.73-.42,3.1a5.62,5.62,0,0,1-.52-2.39C517.49,247.89,518,247.88,518,247.17Zm-21.3-86.77c-.56.2-.28,1-.9,1.15-1.4-2,0-2.1-1.37-4.12C495.15,157.72,495.9,159.58,496.65,160.4ZM476.1,131.48c3.76,1.33,7.86,11.77,11.13,14.52,2.71,6.83,5.93,12.52,9,19.4.51-.35-.75-1.92-.51-2.46,1-.39,2.27,3.05,1.29,3.43,1.27,1.3,1.57,1.3,2.58.13-.08,2.82-.79,3.57-1.75,2.79s-2.09-3.11-3.58-6.3c-.21.68.45,1.95.77,3-.81.72-1.47-2.36-2.26-2.25-.28-.77.52-.82.91-1.13-3-5.08-3.33-5.4-6.45-11,.72-1.35-1.44-2.72-.85-4.42-1-1.3.23,2-1.14.68-1.75-3.89-.83-4-3.77-7.61-.85.42,2.48,3.11.79,3.07a15.57,15.57,0,0,0-4.2-5.89,1.45,1.45,0,0,1,1.71-.42c-.79-1.39-1.47-1.41-2.1-.78C475.69,133.91,476.13,132.83,476.1,131.48Zm17.13,45.84c-.73.52-1.24-.79-1.8-1.77C492.26,175.21,493.4,176.15,493.23,177.32Zm-9-18.54c-1.1-.34-1.45-1.51-1.93-3C483.56,155,483,157.46,484.21,158.78Zm-2.68-11.45c-1.87-.12-1.54-1.76-2.78-3.88C479.59,143.44,480.75,146.14,481.53,147.33Zm-1.89,26.27a72.3,72.3,0,0,0-3.48-7.24c.44-.18.87-.36.62-1a31,31,0,0,1,3.06,4.42c.49.84,1,1.71,1.44,2.6s.76,1.88,1.14,2.82c1.49,3.81,2.76,7.71,3.87,10.68.84,1.2,1.2-1,.6-2.09,1.08.18.81,2.28,1.26,3.17-.53.29-.91-.38-1.44,0-.6.51.9,2.64,1.15,3.81-2.92-3-4.51-6.49-6-10.58Zm15.21,33.92c-.31.11-.05.75,0,1.19-.49,0-.58-1.6-1.1-1.45-.56.79.85,3.46,1.07,5-2.14-1.89-3.27-7.53-4.71-9.16a1.27,1.27,0,0,1,1.9-.62c.93-.83-.31-1.22,0-2.38-.86-1.38-.15,1.93-1.26,1.61-1.25-4.15-1.12-5.22-2.71-6.79-.14-1.85.56-.1-.9-3.26,2-1.08,1.83,3.19,2.95,4.32.93-2.34-3.76-6.45-1.61-7.26.57,1.68,1.36,3.4,2.17,5.19s1.44,3.71,2.17,5.62a33.08,33.08,0,0,1,2.49,12C494.33,210.55,495.63,209.51,494.85,207.52Zm1.77-18.12c-1.54-3.2-3-7.19-3.82-8.69-.1-2.63,1-3.61,2.68-.48-.29,0-.53-.43-.83-.3,1.38,3.5,2.24,5.4,3.12,7.15a55.49,55.49,0,0,1,3,6.34C499.41,195.14,498.22,192.58,496.62,189.4Zm.2-18.26c.78-.15,1.5.36,2.35-.41,1.05,3.23.91,4.87,1.66,8.55C498.74,178,498.71,174.33,496.82,171.14Zm7.77,17.73c0-2.82-2.71-4.07-3.17-7.21.87.09,1.56,1.54,2.43,1.64C503.23,184.42,505.73,188.17,504.59,188.87Zm-.71,2.18c-.68.44-.85-1.53-1.47-1.38-.67-2,1.71,1,1-1C504.65,188.84,503.94,190.63,503.88,191.05Zm2.6,12.39c.51-3.3-2-6.8-2.11-11.93C506.42,195.5,508.71,205.41,506.48,203.44Zm1.78,3.85c1.13.3.21-1.45,0-2.5a46.12,46.12,0,0,1,2.73,8.36c.69,3.53,1.37,7.44,2.36,10.84C510,220.42,510.79,213.23,508.26,207.29Zm3.38,2.19c1.54,2.57,2.09,5.94,2.62,9.08s1.06,6.06,2.24,7.89c-1,.71-1.18-.75-1.85-.88-.23-3.45-.62-4.22-1.12-7.82C512.63,221.44,511.07,210.55,511.64,209.48Zm4.44,88.14c-1.86-.43.14-1.92.16-4.26C517,293.68,516,296.35,516.08,297.62Zm-.68-67.87c-.08,4.91,1.71,9.64-.61,11.71.23-4.29-1-5.73-2.25-8.76.19-.84.68-1.31.57-2.53.92.75.75,1.35.84,2.9,1.16-.72,1.52-2.45,1.13-5.12,1.13-.64,1.61.68,1.84,2.76C516.1,231.3,516.05,229.63,515.4,229.75Zm2.51-3c-1.23-.26-.76-2-.55-3C518.15,223.77,518,226.39,517.91,226.79Zm1-4c-1,.07-1.11-2.9-1.56-4.71-.47.06-.93.11-.86.83-1.45-5.8-3.78-16.31-8.05-24.37-.22-2-.36-3.93.16-5.22-.78-1.62-.9.71-1.56.56-.65-1.4.32-3.1-.89-3.56-.38-1.77.21-.82,1-1-1.6-2.72-2.8-4.68-3.32-6.62-1.26-.16.23,2,.52,3.1-1.79-1.35-3-5.5-2.95-7.38,1-.94,3.08,1.8,1.9-1.51,2.1,2.07,2.6,9.5,4.42,10.2-.95-4.67-5.15-11.94-4.24-15,3.86,5.56,4.14,11.48,7.14,17.91l-1,.37.38.75c.51,1.26,1,2.57,1.49,3.92,1,2.71,1.94,5.58,2.83,8.55,1.72,5.94,3.45,12.19,3.65,18.39.21.64.72.27.88,1.07A23,23,0,0,1,518.88,222.83Z"/><path class="cls-2" d="M178.48,461.58a.4.4,0,0,0-.47.64c.21.23.68.21,1.09.25C178.92,462.12,178.76,461.71,178.48,461.58Z"/><path class="cls-2" d="M121.44,419.33c-1.2-1.14-.62-1.89-2.12-3.08C118.25,416.68,120.84,420.39,121.44,419.33Z"/><path class="cls-2" d="M180.51,463.37c.19-.1.16-.63.19-1l-1.34.3C179.55,463.17,179.77,463.75,180.51,463.37Z"/><path class="cls-2" d="M235.06,503.33l.25-.09c0-.08,0-.14,0-.22s-.1.08-.18.1S235.07,503.26,235.06,503.33Z"/><path class="cls-2" d="M180.7,462.34l.19,0,0-.08-.14,0S180.71,462.28,180.7,462.34Z"/><path class="cls-2" d="M179.1,462.47l.1.2.16,0-.06-.15Z"/><path class="cls-2" d="M516.23,313.65a5.9,5.9,0,0,1-.84,2.35c.83.82,2.78-2.57,1.7-1.59C516.54,316.13,516.77,313.41,516.23,313.65Z"/><path class="cls-2" d="M490.5,290.76a.46.46,0,0,0,.26,0A.57.57,0,0,0,490.5,290.76Z"/><path class="cls-2" d="M488,387.66c1.17,1.25,2.14-1.11,2.06-2.37C489.39,387.05,488.7,385.9,488,387.66Z"/><path class="cls-2" d="M487.84,311.25a.48.48,0,0,1,0-.12l-.06.11Z"/><path class="cls-2" d="M487.08,404.82c-1.4,1.38-2.08,3-3.16,4.69.15-1.76-3.56,3.06-3.74,4.3,1.42-.29,2.78,0,4.3-1-.35-.8-1.32-1.27-.63-2.63C484.58,409.9,488.29,405.16,487.08,404.82Z"/><path class="cls-2" d="M536.51,275.93c-.06-2.87-.09-5.87-.06-9,0-1.58,0-3.21.06-4.87s-.09-3.37-.14-5.13c-.57.08-.89-.44-1.09-1.22.72-1.63.19-1.75,0-4.58,1,.66,1.26.27,1.55-1.46-.39-.07-.93.2-1-.55a70.14,70.14,0,0,0-2.06-11.49,26.74,26.74,0,0,0-3.18-7.55c.53,1.11.55,3.77,1,5.2.8-.23,1.21.82,1.56,1.72-.67.27.17,2.85-.36,3.32.36.65,1.23,0,1.15,1.81.76,11.25,1.58,19.59,1.07,27.64-.14,4-.29,7.94-.44,12.11-.09,2.08-.19,4.22-.28,6.45-.25,2.23-.52,4.55-.79,7,2.23-.09-.56,2.17.28,3.29,1.9-1.13,1.72-2.58,2.66-5.7-1-.64-.87,1.64-1.54,1.85a5.07,5.07,0,0,0-.12-2c1.33,1,1.33-3.26,2.14-1.18C537.07,286.86,536.56,281.65,536.51,275.93Z"/><path class="cls-2" d="M541.72,338.48A7.88,7.88,0,0,1,540,341.6c-.07-.62-1-2.44-1.46-1.06.82,1.46-.18,2.47.44,3.63.35-1.12.7-1.63,1.18-1.83,0,2.23-.56,2.23-1.35,4.61.56.31.94-.55,1.5-.32-1.18,2.15-.54,3.93-.71,5.53.53-2,1.37-1.83,1.9-3.79-.73-2.16.33-3.9.92-8.32C541.69,340.1,542,339,541.72,338.48Z"/><path class="cls-2" d="M258.47,512.58a8.13,8.13,0,0,0,.59.82c.05.06.46-.08.46-.12C259.47,512.5,259,512.54,258.47,512.58Z"/><path class="cls-2" d="M532.4,263c-.45-2.15.08-2.75-.55-3.83C531.62,259.63,531.25,263.61,532.4,263Z"/><path class="cls-2" d="M474.7,369.18l.76.29c.05-.14.1-.29.14-.44-.17-.12-.37-.35-.52-.32S474.82,369,474.7,369.18Z"/><path class="cls-2" d="M497.67,273.43h-1c-.07,2.25.67,3.22.89,5C497.6,276.72,498.43,274.82,497.67,273.43Z"/><path class="cls-2" d="M51,166.19c.84.66,1.48-.74,2.11-2.32-1.47.68.94-3.27-.43-1.49-.57,1.38-.18,2-1.27,2.05.13-.3,0-.74-.3-.14a2.87,2.87,0,0,1,.43,1.49C51.33,165.73,51.13,165.7,51,166.19Z"/><path class="cls-2" d="M500.41,360.58c.38-2.23.25-4.1,1.31-7.25-.68-.49-1,.81-1.76,0,.61-1.61.89-2.92.51-3.62-1.31,3.42.1,4.41-.75,7.36-.94-.85-2.05.61-1.88,1.88.74,1.27,1-1.81,1.64-1.32-.34.89.62.72-.08,1.9-1.2-1.79-1.86,4.67-3.86,5.61a1.42,1.42,0,0,1-.76-1.59c2.16-3.84.28-2.35.41-4.32.58-1.77,1.46-1.13,2.1-2.4-1.37-.87-.33-3.88.72-6.06a37.66,37.66,0,0,0-.37-8.28l.27-.49a47.51,47.51,0,0,0,2.36-5.59c.19-.47-.18-.94-.83-.83-1.51.24-3.38,0-4.34,1.33-1.29,1.8-3.28,3.44-2.44,6.2a2.61,2.61,0,0,1-.51,2.13c-.64.71-1.32,1.39-2,2.08a1.81,1.81,0,0,1-.29-.49,6.43,6.43,0,0,1-.35,1.16l-3.21,3.22c-2.24-.3-4.51-.5-6.73-.95a2.89,2.89,0,0,0-2.17.17,1.48,1.48,0,0,0-.39.53c2.9,2.26-.26,3.47-.95,5-.52,1.14-1.73,1.46-2.9,1.66-.94-1.54,2.09-2.89.91-4.6a4.83,4.83,0,0,0,.37-.62,21.82,21.82,0,0,0,3.65-5.93c1-2.43,1.94-4.75,2.57-5.9-.31.23-1-.76-1-1.18,1.37-1.4.86-7,1.83-4.55.77-1.91.08-2.55-.29-3.46-.66,4.43-2.57,8.19-2.24,11.21-1.71.92-2.28,3.72-3.1,5.93a13.29,13.29,0,0,1-1,2.17,5.6,5.6,0,0,0-.56-.93.6.6,0,0,0-.57,0,12.68,12.68,0,0,1-1.1,1.1c-.64.4-1.41.81-2.06.07a1.86,1.86,0,0,1-.42-2.11,19.69,19.69,0,0,0,.68-2.05c.73-.26,1.65-.34,2.11-.85a3.13,3.13,0,0,0,.4-2.1,21,21,0,0,1-.35-3.13c.29.44.35,1,.74-.39a5.32,5.32,0,0,1-.11-1.57,1.66,1.66,0,0,0,.06-.61c.35-3.11,2.15-7.08,2-9.34-.56,1.54-1.1,3-1.65,4.49-.15-.77-.32-1.55-.53-2.31-.06-.18-.36-.34-.58-.4s-.35.18-.41.33a2.83,2.83,0,0,0,.72,3.24.82.82,0,0,0,.43.15c-.31.82-.63,1.63-.93,2.44-.65-.56-1.39-1.1-1.42-2a10.84,10.84,0,0,0-.58-2.72,10.31,10.31,0,0,0,1.43-3.16c-.89-.08.35-2-.82-1.82a1,1,0,0,0-.79.3,8.87,8.87,0,0,0-.38-4.75c-.41-1.63-.38-2.75,1.46-3.79a3.57,3.57,0,0,0,1.73-2.5c.61,0,1.18-.7,1.69-1.6.3,1.65,2,1.92,1.81,4.1a2.87,2.87,0,0,1,1.11-1.9c.65.53.27,2.11,1.16,2.41a14.27,14.27,0,0,1,2.14-6.58c-1.74-.31-.43-3.43-.09-4.31.78.8.63,2.31-.13,3.73,1.7-.69,0,2.15,1.3,1.87.87-2-1.73-8.31,1.4-10.54-1.16,4.63.23,5.77.36,8.7,1.76,1.11,2.78.39,3.56-1l-.92-.16c.09-1.13.52-1.36.78-2.07.22.38.45.75.66.11.79.26-.54.81-.46,2,.92-1.73,1.49-4.41,2.52-6.1.16-4.69,2.9-11.48,2.18-15.19-.59,1.66-.44,5.45-2.35,5.82-1.51-1.3,1.2-3.12-.22-3.84-.72,2.33-.07,3.41-1.5,4.2.08-.71-.52-.54-.54-1.13.6-1.93,1.68-4.07,2.57-4.13-.34-.24,1.14-1.48.11-1.61-.37.78-1.15.7-1.78,1-.22,2.64-.92,4.3-2.22,4.65-1-3.15.14-5.67-.17-8.13a9.52,9.52,0,0,0,2.08-2.31,1.8,1.8,0,0,0-.25-2.12c-.36-.56-1.4-.68-1-1.73.49-1.44.63-3.09,1.41-4.34a23.24,23.24,0,0,0,3.33-9.29s0,0,0-.06a1,1,0,0,0,.45.12c.2,3,1.38,4.94.51,8.18a2,2,0,0,0,.46-.67q0,2.87.19,5.86c2.28.84-.54-2.16,1.16-2.41.57,1.17.59,5.36-.74,5.75a22.28,22.28,0,0,0,.47-3c-.66.45-.83,1.75-1.07,2.94h0a.81.81,0,0,0,0,.16,3.81,3.81,0,0,1-.71,1.78c.26.33.47,3,.81,1.7,0-.06,0-.16,0-.22,0,4-.49,7.85-.69,11.51-.47,4.66-.68,9,.28,13.32a5,5,0,0,0-1.67,4.9,26.27,26.27,0,0,1-4.07,11.88c2.07,1.07-2.11,4.27-1.68,6.41-.52.07-.74.47-1-.28.72,4.63-4.2,6.05-4.71,11.2,1-2.16,1.07,2.52,2.27-1.56-.48-.95-1.63.95-1.27-.42,1.87.79,2.91-3.69,5.07-4.77-.82-3.49,1.87-5.93,3.22-10.09.72-.25,2.91-.73,2.24-2.33-.36,2.27-1.05-.7-1.49-.93a30.86,30.86,0,0,1,2.28-6,9.07,9.07,0,0,0,1.52,2.45c.1-.51.15-.95.23-1.45.36-.06.52-.14,1.1.41,1-2.47,0-2.81-.12-4.07,2,1.21,2.23-6.2,3.75-8-.74,0-.92-.61-.72-1.83.44.29.47.77,1,.15,1.22-10.87,1.79-20.75,2.49-30.6-1-3.35-1.84-12.91,1.54-12.56a105.52,105.52,0,0,0-.58-20.82c-2.06,3-3.91,5.79-4.43,7.83-.34,1.36-4.16,1.91-4.69,3.2-1.08,2.63-3.5,1.61-3.86,4s-5.57,6.55-6,9c-.54.79-1.16,1.51-1.77,2.24-4.75,3.46-4.7,4.89-10.49,6.94-1.8.06-3.6.1-5.38.12-.77-.15-1.54-.3-2.31-.48-2.12-.49-4.14-1.43-6.28-1.79-5.55-.92-10.54-3.16-15.47-5.66a28.75,28.75,0,0,0-5.67-2.41c-4.71-1.18-8.62-3.76-12.63-6.23-4.79-3-9.7-5.73-14.42-8.79-4.19-2.7-8.15-5.73-12.29-8.51-3.24-2.18-6.6-4.2-10.34-6.56a21.28,21.28,0,0,0-.89,3.22c-.71,6.28-4.61,10.64-9.13,14.65a3.56,3.56,0,0,1-1.61,1c-4.21.61-7.3,3.58-11.17,4.89a9,9,0,0,1-2.16.77c-7.54.5-12.7,4.58-17.37,10-6.06,7.05-7.5,15.48-8.8,24.07a4.13,4.13,0,0,0,.31,1.84c1.5,4.5,2.72,9.11,4.65,13.43,1.5,3.34.59,6.23-.93,8.87-1,1.8-2.62,3.73-5.34,4-.88.08-1.7,1-2.51,1.6a16.79,16.79,0,0,1-2.71,2.05c-1.38.62-3.55,1.7-4.28,1.17-4.13-3-10.47-2.56-12.79-8.57-1.88-4.86-5.05-9.25-7.47-13.93a65.11,65.11,0,0,1-3-7.33c-.83-2.25-1.53-4.56-2.27-6.8-2.68.48-4.93,1-7.21,1.27-6.49.8-13,1.4-19.5,2.28-4.21.57-8.37,1.46-12.53,2.25-2.78.53-5.52,1.34-8.31,1.66-3.08.36-4.67,2-5.18,4.74-.35,1.83-.47,3.71-.74,6l6.39-2.19c3-1,6-2.14,9.09-3.1,2.19-.69,4.39-1.4,6.78-.63.65.21,1.48-.2,2.24-.25,1.23-.08,2.47-.09,3.7-.13,5.68-.18,10.08,3.45,15.23,4.76a10.88,10.88,0,0,1,7.55,6.19c1.58,3,1.36,5.5-.52,8-1.7,2.24-2.27,4.12-.32,6.71,1.51,2,1.54,4.76.89,7.24a4.79,4.79,0,0,1-1.84,2.16,53.34,53.34,0,0,1-6.22,4.35,82.39,82.39,0,0,1-7.93,3.63c-3.39,1.43-6.79,2.87-10.26,4.1A95.92,95.92,0,0,1,259,353.83c-4.11.91-8.37,1.15-12.54,1.86a3.56,3.56,0,0,0-2.29,1.66,167,167,0,0,0-7,15.88,37.62,37.62,0,0,0-1.93,18.91c6.93.7,20,0,31.15-4.75a6.35,6.35,0,0,0-.56-1.64c-2.12-3-4.3-6-6.46-8.93s-3.65-6.37-2.17-10.31c.25-.7-.55-1.78-.9-2.76,2.85-2.33,4.3,1.81,7.09,1.46L259.7,361l.35-.41,2.19,1.24c.74-2.1,2-2.66,4.12-1.9A155.89,155.89,0,0,1,286,368.72c1.94,1,4.12,1.68,5.81,3,2.6,2,4.68,1.18,7-.27,2.17-1.34,4.53-2.39,6.81-3.56,1-.53,2.1-1,3.07-1.62,5.57-3.53,11.17-7,16.65-10.68a100.17,100.17,0,0,0,9.84-7.21A59.89,59.89,0,0,1,344,342.6c1.36-.81,2.52-.62,4-.36a74.37,74.37,0,0,0,8,.63c3.25,3.51,6.36,7,9.64,10.36,1.87,1.9,4.2,3.38,6,5.34a40.73,40.73,0,0,1,4.95,6.67c3,5.09.09,11.08-6.86,12.8-1.82.45-4,.21-5.47,1.12-3.66,2.29-7.4,1.39-11.16,1-1.22-.13-2.82-.54-3.49-1.38-1.87-2.34-4.31-2.78-7-2.79-2.05,0-3.94-.16-5.64-1.68-.64-.57-2.21-.47-3.25-.24a43.06,43.06,0,0,0-5,1.78c-2.17-4.05-6.19-2.14-8.92-1.13a20.39,20.39,0,0,1-7.81,1.32c-2.79-.06-4.73,1.38-7.5,2.3a19.74,19.74,0,0,0,2.77,2.69,111.25,111.25,0,0,0,11.9,6.88c3.34,1.51,7.1,2.18,10.72,3.05,7.93,1.9,16.07,2.46,24.17,3.23,6.09.58,12.17,1.15,18.27,1.61,3.21.24,6.45.13,9.66.37,5.52.41,11,1.11,16.54,1.43,8.25.48,16.51.7,24.76,1.11,4.22.21,8.42.62,12.62.92,4.57.33,9.14.63,13.7,1,.15-.53.61-.84,1.43-.81.35,0,.7.39,1,.6-.09.13-.16.29-.25.42a23.68,23.68,0,0,1,3,.52l.68.18c.44-.94,1.22-1.34,2.83-1.75,2.28-.59,4.67-.87,5.78-3.43.2-.46.62-1.06,1-1.15,3.56-.76,4.75-3.83,6.36-6.46,1.22-2,3-3.72,3-6.28,2.08-1.62,3.24-4,4.88-6,1.84-2.18,1.23-5.63,4.11-7.14.46-.24.2-.8-.53-.94-.49-.1-1,.06-1.52-.06a3.16,3.16,0,0,1-.52-.17c.67-1.41,1.33-3,2-4.45-.73,1.11-2.12,2.56-3.28,4a2,2,0,0,0-.34-.05c-1.29.07-1.47,1.05-1.53,2.21a2.83,2.83,0,0,1-1,2,7.38,7.38,0,0,0-1,.85c0-.13,0-.26,0-.43a2.77,2.77,0,0,0-.47.86c-1.73,1.76-2.78,4.07-4.48,5.83-1.24,1.28-2.34,3.25-3.82,3.61-1.82.45-4-.46-6-.77-.75-.12-1.5-.2-2.25-.34a1.38,1.38,0,0,1-.67-.36c-.76-.73-.32-.18.48-.56,1.8-.86,2.05-2,1.61-3.72s.48-1.35,1.68-1.18c1.86.27.61-1.41,1-2.12s.85-.91,1.06-.19c.72,2.42,1.87,1.42,3.07.54,1.48,1,2.95.69,4.41,0a1,1,0,0,0,.52-.56c0-.16-.26-.42-.46-.54-.65-.41-1.33-1.1-2-1.12-3.07-.08-4.59-1.57-5.26-4.52a4.46,4.46,0,0,0-.08-3.23,2.76,2.76,0,0,0,2.11-.24c-.07.2-.13.35-.16.41.16-.2.28-.42.42-.62a3.2,3.2,0,0,0,.82-1c.27-.49,1-.53,1.79-.4a14.74,14.74,0,0,0-.57,1.41c-1.39-.3-3.51,2.89-1.91,2.67-.27-2.68,1.42-.23,1.86-.91a10.22,10.22,0,0,1,1.78-2.95,45.52,45.52,0,0,0,5.19.81c2.75.25,5.18-.35,6.37-3.24,1.13-2.73,3.27-3.87,6.11-4,.77,0,1.53-.38,2.3-.44a5.73,5.73,0,0,0,1-.23,10,10,0,0,1,0,1.31,7.44,7.44,0,0,0,.79-1.61c.21-.1.43-.21.63-.33a50.85,50.85,0,0,1-4.56,10.76c-1.6,2.92-3.24,5.91-4.77,8.72a70.12,70.12,0,0,0-4.23,7.63c.53-.91-.36,2.55-1.68,3.72,2.66-.59,6.35-6.06,9.84-7.55,1.28-2.23,2.43-3.64,3.77-4.18a5.82,5.82,0,0,0,.67-2.33C494.33,371.55,499.18,358.47,500.41,360.58Zm-29.87-14.29.24.39.17,0-.08.13s-.06-.1-.09-.15l-.36,0Zm27.18-67.47c-2,2-1.51-4.64-1.89-8.3,1.15.33,2.41-.38,4.24-1,.76,5.8.07,11.13-.63,16.36-1.12,5.23-2.23,10.37-2,16.22a51.38,51.38,0,0,1-2,6.34c-.1.24-.2.5-.29.74,0-.92,0-1.84,0-2.72,0-2.22,0-4.33.13-6.52a44,44,0,0,1,.78-7C493.44,289.4,499.08,282.38,497.72,278.82Zm-24.54,34.53h0a1.14,1.14,0,0,1,.25,0,6,6,0,0,1-.05,1.34,3.46,3.46,0,0,0-.14-.62A1.14,1.14,0,0,1,473.18,313.35Zm-19.55,82.18c-.31-.37-.8-.7-.87-1.11s.24-.92.39-1.39l.91,1.17h0C453.92,394.65,453.78,395.09,453.63,395.53Zm3.75-4.25a7.2,7.2,0,0,1-.72-.91l-.16,0a.54.54,0,0,1,0-.1,3.06,3.06,0,0,1-2.72,0c-.52-.36-.85-1.86-.41-1.93a2,2,0,0,1,1.2.12c.81.43,1.77.74,1.93,1.85l.11,0,.08.1c.57-.08,1.15-.17,1.2.72C457.87,391.15,457.43,391.34,457.38,391.28Zm7.36-5.36c.15,0,.6.82.57,1.24s-.48,1.13-.74,1.12a22.91,22.91,0,0,1-8.78-2c-.24-.11-.21-.94-.21-1.44,0,0,0,0,0,0s.17-.29.25-.45a1.1,1.1,0,0,0,.14-.18c.24-.08.5-.26.72-.22C459.41,384.5,461.79,386.32,464.74,385.92Zm2.83-37.21-.41-.17-.41-.17h0l.38-.58.57.4C467.65,348.36,467.61,348.54,467.57,348.71Zm3.85,9.14a1.42,1.42,0,0,1-1.31-1c-.51-1.26.18-2,1.36-2.12a3.07,3.07,0,0,0,.36-.11,22.94,22.94,0,0,0-1.28,2.13C471.17,356.9,471.49,357.24,471.42,357.85Z"/><path class="cls-2" d="M39.91,195.64c.53-.47,2.19-2.72,1.59-3.86-.69,1.34-.62,1.77-1.87,2.55C40.05,194.46,39.6,195.41,39.91,195.64Z"/><path class="cls-2" d="M63.84,141.41c.35-1,2.07-2.84,1.48-3.27-3.1,2.78-2.95,7.65-4.66,11.66,2.29-2.31,5.23-9.11,5.83-11.66C65.57,139.55,64.71,141.81,63.84,141.41Z"/><path class="cls-2" d="M49.44,148.8a8.09,8.09,0,0,0,1.19-3.54A3.47,3.47,0,0,0,49.44,148.8Z"/><path class="cls-2" d="M128.8,52.26c1.5-1.1,2.19-.69,3.22-.93-.35-.31,2.32-2.31.5-1.52-1.68,2.27-2.62.35-4,1C128.66,51.29,128.17,51.84,128.8,52.26Z"/><path class="cls-2" d="M59.47,147.84c-.49,2.38-3.87,11.26-5.94,11,.15.72-.07,1.74.47,2.18,2.54-3.37,7-7.75,6.66-11.23-.29.38-.57,1-.87.89.78-1.61.11-2.33,1.72-4.46C60.83,145.65,60.15,146.9,59.47,147.84Z"/><path class="cls-2" d="M124,55.42c1.44-.72,1.93-1,4.09-1.92-.38-.35-.52-1.13-1.31-.73C127.79,54.35,123.37,53.58,124,55.42Z"/><path class="cls-2" d="M57.56,167.75c-1-.11-3.06,3.81-2.93,5.05A30.23,30.23,0,0,1,57.56,167.75Z"/><path class="cls-2" d="M66.24,137.3A4,4,0,0,1,69,136.2c1.11-1.2.1-1.33.76-2.31.47.33,1,.08,1.51-.45-2.18-.69-2.93,2.61-4.92,2.53C66.71,136.21,66,137,66.24,137.3Z"/></g></g></g></svg>